<?xml version="1.0" encoding="UTF-8" standalone="no"?>
<!DOCTYPE svg PUBLIC "-//W3C//DTD SVG 1.1//EN" "http://www.w3.org/Graphics/SVG/1.1/DTD/svg11.dtd">
<svg width="100%" height="100%" viewBox="0 0 1920 1080" version="1.1" xmlns="http://www.w3.org/2000/svg" xmlns:xlink="http://www.w3.org/1999/xlink" xml:space="preserve" style="fill-rule:evenodd;clip-rule:evenodd;stroke-linejoin:round;">
    <g transform="matrix(1,0,0,1,16.8029,43.0983)">
        <g id="colorboardmask3" transform="matrix(1.375,0,0,1.375,-2363.38,-4199.63)">
            <g transform="matrix(3.59167,0,0,3.59167,-7913.34,-2496.37)">
                <rect x="2899.3" y="1588.78" width="133.642" height="133.642" style="fill:url(#_Linear1);"/>
            </g>
            <g transform="matrix(2.38584,0,0,2.38584,-4523.5,-597.782)">
                <rect x="2943.82" y="1621.14" width="25.148" height="25.148"/>
            </g>
            <g transform="matrix(2.38584,0,0,2.38584,-4463.5,-537.782)">
                <rect x="2943.82" y="1621.14" width="25.148" height="25.148"/>
            </g>
            <g transform="matrix(2.38584,0,0,2.38584,-4403.5,-597.782)">
                <rect x="2943.82" y="1621.14" width="25.148" height="25.148"/>
            </g>
            <g transform="matrix(2.38584,0,0,2.38584,-4523.5,-477.782)">
                <rect x="2943.82" y="1621.14" width="25.148" height="25.148"/>
            </g>
            <g transform="matrix(2.38584,0,0,2.38584,-4403.5,-477.782)">
                <rect x="2943.82" y="1621.14" width="25.148" height="25.148"/>
            </g>
            <g transform="matrix(2.38584,0,0,2.38584,-4343.5,-537.782)">
                <rect x="2943.82" y="1621.14" width="25.148" height="25.148"/>
            </g>
            <g transform="matrix(2.38584,0,0,2.38584,-4283.5,-597.782)">
                <rect x="2943.82" y="1621.14" width="25.148" height="25.148"/>
            </g>
            <g transform="matrix(2.38584,0,0,2.38584,-4223.5,-537.782)">
                <rect x="2943.82" y="1621.14" width="25.148" height="25.148"/>
            </g>
            <g transform="matrix(2.38584,0,0,2.38584,-4163.5,-597.782)">
                <rect x="2943.82" y="1621.14" width="25.148" height="25.148"/>
            </g>
            <g transform="matrix(2.38584,0,0,2.38584,-4103.5,-537.782)">
                <rect x="2943.82" y="1621.14" width="25.148" height="25.148"/>
            </g>
            <g transform="matrix(2.38584,0,0,2.38584,-4283.5,-477.782)">
                <rect x="2943.82" y="1621.14" width="25.148" height="25.148"/>
            </g>
            <g transform="matrix(2.38584,0,0,2.38584,-4163.5,-477.782)">
                <rect x="2943.82" y="1621.14" width="25.148" height="25.148"/>
            </g>
            <g transform="matrix(2.38584,0,0,2.38584,-4463.5,-417.782)">
                <rect x="2943.82" y="1621.14" width="25.148" height="25.148"/>
            </g>
            <g transform="matrix(2.38584,0,0,2.38584,-4523.5,-357.782)">
                <rect x="2943.82" y="1621.14" width="25.148" height="25.148"/>
            </g>
            <g transform="matrix(2.38584,0,0,2.38584,-4403.5,-357.782)">
                <rect x="2943.82" y="1621.14" width="25.148" height="25.148"/>
            </g>
            <g transform="matrix(2.38584,0,0,2.38584,-4343.5,-417.782)">
                <rect x="2943.82" y="1621.14" width="25.148" height="25.148"/>
            </g>
            <g transform="matrix(2.38584,0,0,2.38584,-4223.5,-417.782)">
                <rect x="2943.82" y="1621.14" width="25.148" height="25.148"/>
            </g>
            <g transform="matrix(2.38584,0,0,2.38584,-4103.5,-417.782)">
                <rect x="2943.82" y="1621.14" width="25.148" height="25.148"/>
            </g>
            <g transform="matrix(2.38584,0,0,2.38584,-4283.5,-357.782)">
                <rect x="2943.82" y="1621.14" width="25.148" height="25.148"/>
            </g>
            <g transform="matrix(2.38584,0,0,2.38584,-4163.5,-357.782)">
                <rect x="2943.82" y="1621.14" width="25.148" height="25.148"/>
            </g>
            <g transform="matrix(2.38584,0,0,2.38584,-4463.5,-297.782)">
                <rect x="2943.82" y="1621.14" width="25.148" height="25.148"/>
            </g>
            <g transform="matrix(2.38584,0,0,2.38584,-4523.5,-237.782)">
                <rect x="2943.82" y="1621.14" width="25.148" height="25.148"/>
            </g>
            <g transform="matrix(2.38584,0,0,2.38584,-4403.5,-237.782)">
                <rect x="2943.82" y="1621.14" width="25.148" height="25.148"/>
            </g>
            <g transform="matrix(2.38584,0,0,2.38584,-4343.5,-297.782)">
                <rect x="2943.82" y="1621.14" width="25.148" height="25.148"/>
            </g>
            <g transform="matrix(2.38584,0,0,2.38584,-4223.5,-297.782)">
                <rect x="2943.82" y="1621.14" width="25.148" height="25.148"/>
            </g>
            <g transform="matrix(2.38584,0,0,2.38584,-4103.5,-297.782)">
                <rect x="2943.82" y="1621.14" width="25.148" height="25.148"/>
            </g>
            <g transform="matrix(2.38584,0,0,2.38584,-4283.5,-237.782)">
                <rect x="2943.82" y="1621.14" width="25.148" height="25.148"/>
            </g>
            <g transform="matrix(2.38584,0,0,2.38584,-4163.5,-237.782)">
                <rect x="2943.82" y="1621.14" width="25.148" height="25.148"/>
            </g>
            <g transform="matrix(2.38584,0,0,2.38584,-4463.5,-657.782)">
                <rect x="2943.82" y="1621.14" width="25.148" height="25.148"/>
            </g>
            <g transform="matrix(2.38584,0,0,2.38584,-4343.5,-657.782)">
                <rect x="2943.82" y="1621.14" width="25.148" height="25.148"/>
            </g>
            <g transform="matrix(2.38584,0,0,2.38584,-4223.5,-657.782)">
                <rect x="2943.82" y="1621.14" width="25.148" height="25.148"/>
            </g>
            <g transform="matrix(2.38584,0,0,2.38584,-4103.5,-657.782)">
                <rect x="2943.82" y="1621.14" width="25.148" height="25.148"/>
            </g>
            <g transform="matrix(0.815926,0,0,0.787966,-564.423,2290.49)">
                <ellipse cx="3792.53" cy="1738.03" rx="22.704" ry="23.51" style="fill:rgb(107,203,73);"/>
            </g>
            <g transform="matrix(0.815926,0,0,0.787966,-384.423,2110.49)">
                <ellipse cx="3792.53" cy="1738.03" rx="22.704" ry="23.51" style="fill:rgb(107,203,73);"/>
            </g>
            <g transform="matrix(0.815926,0,0,0.787966,-444.423,2230.49)">
                <ellipse cx="3792.53" cy="1738.03" rx="22.704" ry="23.51" style="fill:rgb(253,115,55);"/>
            </g>
            <g transform="matrix(0.815926,0,0,0.787966,-444.423,1870.49)">
                <ellipse cx="3792.53" cy="1738.03" rx="22.704" ry="23.51" style="fill:rgb(253,115,55);"/>
            </g>
        </g>
        <g transform="matrix(1,0,0,1,-1390.09,-3021.88)">
            <text x="2642.41px" y="3200.46px" style="font-family:'HelveticaNeue', 'Helvetica Neue';font-size:48px;">or</text>
        </g>
        <g transform="matrix(1,0,0,1,-1339.56,-3021.84)">
            <text x="2754.41px" y="3192.72px" style="font-family:'HelveticaNeue', 'Helvetica Neue';font-size:48px;">?</text>
        </g>
        <g transform="matrix(1.05752,0,0,1.05752,1198.92,161.987)">
            <g transform="matrix(1,0,0,1,-40,-40)">
                <g transform="matrix(2,0,0,2,-5,-6)">
                    <g>
                        <rect x="9" y="36" width="27" height="3" style="fill:rgb(253,115,55);stroke:rgb(253,115,55);stroke-width:1.5px;"/>
                        <path d="M12.5,32L14,29.5L31,29.5L32.5,32L12.5,32Z" style="fill:rgb(253,115,55);stroke:rgb(253,115,55);stroke-width:1.5px;"/>
                        <rect x="12" y="32" width="21" height="4" style="fill:rgb(253,115,55);stroke:rgb(253,115,55);stroke-width:1.5px;"/>
                        <g>
                            <rect x="14" y="16.5" width="17" height="13" style="fill:rgb(253,115,55);"/>
                            <path d="M31.75,30.25L13.25,30.25L13.25,15.75L31.75,15.75L31.75,30.25ZM14.75,17.25L14.75,28.75L30.25,28.75L30.25,17.25L14.75,17.25Z" style="fill:rgb(253,115,55);"/>
                        </g>
                        <path d="M14,16.5L11,14L34,14L31,16.5L14,16.5Z" style="fill:rgb(253,115,55);stroke:rgb(253,115,55);stroke-width:1.5px;"/>
                        <path d="M11,14L11,9L15,9L15,11L20,11L20,9L25,9L25,11L30,11L30,9L34,9L34,14L11,14Z" style="fill:rgb(253,115,55);stroke:rgb(253,115,55);stroke-width:1.5px;"/>
                    </g>
                    <path d="M12,35.5L33,35.5" style="fill:none;stroke:white;stroke-width:1px;stroke-linecap:round;stroke-linejoin:miter;"/>
                    <path d="M13,31.5L32,31.5" style="fill:none;stroke:white;stroke-width:1px;stroke-linecap:round;stroke-linejoin:miter;"/>
                    <path d="M14,29.5L31,29.5" style="fill:none;stroke:white;stroke-width:1px;stroke-linecap:round;stroke-linejoin:miter;"/>
                    <path d="M14,16.5L31,16.5" style="fill:none;stroke:white;stroke-width:1px;stroke-linecap:round;stroke-linejoin:miter;"/>
                    <path d="M11,14L34,14" style="fill:none;stroke:white;stroke-width:1px;stroke-linecap:round;stroke-linejoin:miter;"/>
                </g>
            </g>
        </g>
        <g transform="matrix(1.05752,0,0,1.05752,1358.14,161.987)">
            <g transform="matrix(1,0,0,1,-40,-40)">
                <g transform="matrix(2,0,0,2,-5,-6)">
                    <g>
                        <circle cx="6" cy="12" r="2.75" style="fill:rgb(253,115,55);"/>
                        <circle cx="14" cy="9" r="2.75" style="fill:rgb(253,115,55);"/>
                        <circle cx="22.5" cy="8" r="2.75" style="fill:rgb(253,115,55);"/>
                        <circle cx="31" cy="9" r="2.75" style="fill:rgb(253,115,55);"/>
                        <circle cx="39" cy="12" r="2.75" style="fill:rgb(253,115,55);"/>
                    </g>
                    <path d="M9,26C17.5,24.5 30,24.5 36,26L38.5,13.5L31,25L30.7,10.9L25.5,24.5L22.5,10L19.5,24.5L14.3,10.9L14,25L6.5,13.5L9,26Z" style="fill:rgb(253,115,55);stroke:rgb(253,115,55);stroke-width:1.5px;"/>
                    <path d="M9,26C9,28 10.5,28 11.5,30C12.5,31.5 12.5,31 12,33.5C10.5,34.5 10.5,36 10.5,36C9,37.5 11,38.5 11,38.5C17.5,39.5 27.5,39.5 34,38.5C34,38.5 35.5,37.5 34,36C34,36 34.5,34.5 33,33.5C32.5,31 32.5,31.5 33.5,30C34.5,28 36,28 36,26C27.5,24.5 17.5,24.5 9,26Z" style="fill:rgb(253,115,55);stroke:rgb(253,115,55);stroke-width:1.5px;"/>
                    <path d="M11,38.5C18.446,41.09 26.554,41.09 34,38.5" style="fill:none;stroke:rgb(253,115,55);stroke-width:1.5px;"/>
                    <path d="M11,29C18.446,26.41 26.554,26.41 34,29" style="fill:none;stroke:white;stroke-width:1.5px;stroke-linecap:round;"/>
                    <path d="M12.5,31.5L32.5,31.5" style="fill:none;stroke:white;stroke-width:1.5px;stroke-linecap:round;"/>
                    <path d="M11.5,34.5C18.642,36.864 26.358,36.864 33.5,34.5" style="fill:none;stroke:white;stroke-width:1.5px;stroke-linecap:round;"/>
                    <path d="M10.5,37.5C18.248,40.328 26.752,40.328 34.5,37.5" style="fill:none;stroke:white;stroke-width:1.5px;stroke-linecap:round;"/>
                </g>
            </g>
        </g>
    </g>
    <g transform="matrix(0.63987,0,0,1.4374,-131.33,-4295.71)">
        <path d="M1579.15,3409.22L1579.15,3384.87L1753.87,3384.87L1753.87,3362.26L1832.02,3397.05L1753.87,3431.83L1753.87,3409.22L1579.15,3409.22Z" style="fill:rgb(44,62,80);"/>
    </g>
    <g id="chessboard3" transform="matrix(1.375,0,0,1.375,-2525.92,-4156.53)">
        <g transform="matrix(3.59167,0,0,3.59167,-8453.34,-2496.37)">
            <rect x="2899.3" y="1588.78" width="133.642" height="133.642" style="fill:url(#_Linear2);"/>
        </g>
        <g transform="matrix(2.38584,0,0,2.38584,-5063.5,-597.782)">
            <rect x="2943.82" y="1621.14" width="25.148" height="25.148"/>
        </g>
        <g transform="matrix(2.38584,0,0,2.38584,-5003.5,-537.782)">
            <rect x="2943.82" y="1621.14" width="25.148" height="25.148"/>
        </g>
        <g transform="matrix(2.38584,0,0,2.38584,-4943.5,-597.782)">
            <rect x="2943.82" y="1621.14" width="25.148" height="25.148"/>
        </g>
        <g transform="matrix(2.38584,0,0,2.38584,-5063.5,-477.782)">
            <rect x="2943.82" y="1621.14" width="25.148" height="25.148"/>
        </g>
        <g transform="matrix(2.38584,0,0,2.38584,-4943.5,-477.782)">
            <rect x="2943.82" y="1621.14" width="25.148" height="25.148"/>
        </g>
        <g transform="matrix(2.38584,0,0,2.38584,-4883.5,-537.782)">
            <rect x="2943.82" y="1621.14" width="25.148" height="25.148"/>
        </g>
        <g transform="matrix(2.38584,0,0,2.38584,-4823.5,-597.782)">
            <rect x="2943.82" y="1621.14" width="25.148" height="25.148"/>
        </g>
        <g transform="matrix(2.38584,0,0,2.38584,-4763.5,-537.782)">
            <rect x="2943.82" y="1621.14" width="25.148" height="25.148"/>
        </g>
        <g transform="matrix(2.38584,0,0,2.38584,-4703.5,-597.782)">
            <rect x="2943.82" y="1621.14" width="25.148" height="25.148"/>
        </g>
        <g transform="matrix(2.38584,0,0,2.38584,-4643.5,-537.782)">
            <rect x="2943.82" y="1621.14" width="25.148" height="25.148"/>
        </g>
        <g transform="matrix(2.38584,0,0,2.38584,-4823.5,-477.782)">
            <rect x="2943.82" y="1621.14" width="25.148" height="25.148"/>
        </g>
        <g transform="matrix(2.38584,0,0,2.38584,-4703.5,-477.782)">
            <rect x="2943.82" y="1621.14" width="25.148" height="25.148"/>
        </g>
        <g transform="matrix(2.38584,0,0,2.38584,-5003.5,-417.782)">
            <rect x="2943.82" y="1621.14" width="25.148" height="25.148"/>
        </g>
        <g transform="matrix(2.38584,0,0,2.38584,-5063.5,-357.782)">
            <rect x="2943.82" y="1621.14" width="25.148" height="25.148"/>
        </g>
        <g transform="matrix(2.38584,0,0,2.38584,-4943.5,-357.782)">
            <rect x="2943.82" y="1621.14" width="25.148" height="25.148"/>
        </g>
        <g transform="matrix(2.38584,0,0,2.38584,-4883.5,-417.782)">
            <rect x="2943.82" y="1621.14" width="25.148" height="25.148"/>
        </g>
        <g transform="matrix(2.38584,0,0,2.38584,-4763.5,-417.782)">
            <rect x="2943.82" y="1621.14" width="25.148" height="25.148"/>
        </g>
        <g transform="matrix(2.38584,0,0,2.38584,-4643.5,-417.782)">
            <rect x="2943.82" y="1621.14" width="25.148" height="25.148"/>
        </g>
        <g transform="matrix(2.38584,0,0,2.38584,-4823.5,-357.782)">
            <rect x="2943.82" y="1621.14" width="25.148" height="25.148"/>
        </g>
        <g transform="matrix(2.38584,0,0,2.38584,-4703.5,-357.782)">
            <rect x="2943.82" y="1621.14" width="25.148" height="25.148"/>
        </g>
        <g transform="matrix(2.38584,0,0,2.38584,-5003.5,-297.782)">
            <rect x="2943.82" y="1621.14" width="25.148" height="25.148"/>
        </g>
        <g transform="matrix(2.38584,0,0,2.38584,-5063.5,-237.782)">
            <rect x="2943.82" y="1621.14" width="25.148" height="25.148"/>
        </g>
        <g transform="matrix(2.38584,0,0,2.38584,-4943.5,-237.782)">
            <rect x="2943.82" y="1621.14" width="25.148" height="25.148"/>
        </g>
        <g transform="matrix(2.38584,0,0,2.38584,-4883.5,-297.782)">
            <rect x="2943.82" y="1621.14" width="25.148" height="25.148"/>
        </g>
        <g transform="matrix(2.38584,0,0,2.38584,-4763.5,-297.782)">
            <rect x="2943.82" y="1621.14" width="25.148" height="25.148"/>
        </g>
        <g transform="matrix(2.38584,0,0,2.38584,-4643.5,-297.782)">
            <rect x="2943.82" y="1621.14" width="25.148" height="25.148"/>
        </g>
        <g transform="matrix(2.38584,0,0,2.38584,-4823.5,-237.782)">
            <rect x="2943.82" y="1621.14" width="25.148" height="25.148"/>
        </g>
        <g transform="matrix(2.38584,0,0,2.38584,-4703.5,-237.782)">
            <rect x="2943.82" y="1621.14" width="25.148" height="25.148"/>
        </g>
        <g transform="matrix(2.38584,0,0,2.38584,-5003.5,-657.782)">
            <rect x="2943.82" y="1621.14" width="25.148" height="25.148"/>
        </g>
        <g transform="matrix(2.38584,0,0,2.38584,-4883.5,-657.782)">
            <rect x="2943.82" y="1621.14" width="25.148" height="25.148"/>
        </g>
        <g transform="matrix(2.38584,0,0,2.38584,-4763.5,-657.782)">
            <rect x="2943.82" y="1621.14" width="25.148" height="25.148"/>
        </g>
        <g transform="matrix(2.38584,0,0,2.38584,-4643.5,-657.782)">
            <rect x="2943.82" y="1621.14" width="25.148" height="25.148"/>
        </g>
        <g transform="matrix(0.75,0,0,0.75,2110,3300)">
            <g transform="matrix(1,0,0,1,-40,-40)">
                <g transform="matrix(2,0,0,2,-4,-6)">
                    <path d="M22,9C19.79,9 18,10.79 18,13C18,13.89 18.29,14.71 18.78,15.38C16.83,16.5 15.5,18.59 15.5,21C15.5,23.03 16.44,24.84 17.91,26.03C14.91,27.09 10.5,31.58 10.5,39.5L33.5,39.5C33.5,31.58 29.09,27.09 26.09,26.03C27.56,24.84 28.5,23.03 28.5,21C28.5,18.59 27.17,16.5 25.22,15.38C25.71,14.71 26,13.89 26,13C26,10.79 24.21,9 22,9Z" style="fill:rgb(253,115,55);fill-rule:nonzero;"/>
                    <path d="M22.061,8.25L22.122,8.252L22.183,8.253L22.244,8.256L22.304,8.26L22.365,8.264L22.425,8.269L22.485,8.274L22.545,8.281L22.604,8.288L22.663,8.296L22.723,8.305L22.781,8.314L22.84,8.324L22.898,8.335L22.957,8.346L23.015,8.359L23.072,8.372L23.13,8.385L23.187,8.4L23.244,8.414L23.3,8.43L23.356,8.447L23.412,8.464L23.468,8.481L23.524,8.5L23.579,8.519L23.633,8.538L23.688,8.559L23.742,8.58L23.796,8.601L23.849,8.623L23.903,8.646L23.955,8.67L24.008,8.694L24.06,8.719L24.112,8.744L24.163,8.77L24.214,8.796L24.265,8.824L24.315,8.851L24.365,8.88L24.415,8.908L24.464,8.938L24.513,8.968L24.561,8.999L24.609,9.03L24.657,9.061L24.704,9.094L24.75,9.126L24.797,9.16L24.843,9.194L24.888,9.228L24.933,9.263L24.978,9.299L25.022,9.335L25.066,9.371L25.109,9.408L25.152,9.446L25.194,9.484L25.236,9.522L25.278,9.561L25.319,9.601L25.359,9.641L25.399,9.681L25.439,9.722L25.478,9.764L25.516,9.806L25.554,9.848L25.592,9.891L25.629,9.934L25.665,9.978L25.701,10.022L25.737,10.067L25.772,10.112L25.806,10.157L25.84,10.203L25.874,10.25L25.906,10.296L25.939,10.343L25.97,10.391L26.001,10.439L26.032,10.487L26.062,10.536L26.092,10.585L26.12,10.635L26.149,10.685L26.176,10.735L26.204,10.786L26.23,10.837L26.256,10.888L26.281,10.94L26.306,10.992L26.33,11.045L26.354,11.097L26.377,11.151L26.399,11.204L26.42,11.258L26.441,11.312L26.462,11.367L26.481,11.421L26.5,11.477L26.519,11.532L26.536,11.587L26.553,11.644L26.57,11.7L26.586,11.756L26.601,11.813L26.615,11.87L26.628,11.928L26.641,11.985L26.654,12.043L26.665,12.101L26.676,12.16L26.686,12.219L26.695,12.277L26.704,12.337L26.712,12.396L26.719,12.455L26.726,12.515L26.731,12.575L26.736,12.635L26.74,12.696L26.744,12.756L26.747,12.817L26.748,12.878L26.75,12.939L26.75,12.999L26.75,13.049L26.749,13.099L26.748,13.148L26.746,13.197L26.744,13.245L26.741,13.294L26.738,13.343L26.734,13.391L26.73,13.44L26.725,13.488L26.72,13.536L26.714,13.584L26.708,13.632L26.702,13.68L26.695,13.727L26.687,13.774L26.679,13.822L26.671,13.869L26.662,13.916L26.652,13.963L26.643,14.009L26.632,14.056L26.622,14.102L26.61,14.148L26.599,14.194L26.587,14.24L26.574,14.285L26.561,14.331L26.548,14.376L26.534,14.421L26.52,14.466L26.505,14.51L26.49,14.555L26.474,14.599L26.458,14.643L26.442,14.687L26.425,14.731L26.408,14.774L26.391,14.817L26.373,14.86L26.354,14.903L26.335,14.946L26.316,14.988L26.296,15.03L26.277,15.072L26.256,15.114L26.239,15.147L26.28,15.177L26.327,15.211L26.374,15.247L26.42,15.282L26.466,15.318L26.512,15.354L26.558,15.391L26.603,15.427L26.648,15.465L26.693,15.502L26.737,15.54L26.781,15.579L26.825,15.617L26.868,15.656L26.911,15.696L26.954,15.735L26.996,15.775L27.038,15.816L27.08,15.856L27.122,15.897L27.163,15.938L27.204,15.98L27.244,16.022L27.284,16.064L27.324,16.107L27.364,16.15L27.403,16.193L27.442,16.237L27.48,16.281L27.518,16.325L27.556,16.369L27.593,16.414L27.631,16.459L27.667,16.505L27.704,16.551L27.74,16.597L27.775,16.643L27.81,16.689L27.845,16.736L27.88,16.784L27.914,16.831L27.948,16.879L27.981,16.927L28.014,16.975L28.047,17.024L28.079,17.073L28.111,17.122L28.143,17.171L28.174,17.221L28.205,17.271L28.235,17.321L28.265,17.372L28.294,17.423L28.324,17.474L28.352,17.525L28.381,17.577L28.409,17.629L28.436,17.681L28.463,17.733L28.49,17.786L28.516,17.838L28.542,17.892L28.567,17.945L28.592,17.998L28.617,18.052L28.641,18.106L28.665,18.161L28.688,18.215L28.711,18.27L28.733,18.325L28.755,18.38L28.777,18.436L28.798,18.491L28.819,18.547L28.839,18.603L28.859,18.66L28.878,18.716L28.897,18.773L28.915,18.83L28.933,18.887L28.95,18.944L28.967,19.002L28.984,19.06L29,19.118L29.015,19.176L29.03,19.234L29.045,19.293L29.059,19.352L29.073,19.411L29.086,19.47L29.099,19.529L29.111,19.588L29.122,19.648L29.134,19.708L29.144,19.768L29.154,19.828L29.164,19.888L29.173,19.949L29.182,20.01L29.19,20.07L29.198,20.131L29.205,20.193L29.212,20.254L29.218,20.315L29.223,20.377L29.228,20.439L29.233,20.5L29.237,20.562L29.24,20.625L29.243,20.687L29.246,20.749L29.248,20.812L29.249,20.874L29.25,20.937L29.25,21.001L29.249,21.106L29.247,21.211L29.243,21.317L29.238,21.421L29.231,21.526L29.223,21.63L29.213,21.733L29.202,21.837L29.189,21.939L29.175,22.042L29.159,22.144L29.142,22.245L29.124,22.346L29.104,22.447L29.083,22.547L29.06,22.646L29.036,22.745L29.011,22.844L28.984,22.942L28.956,23.039L28.927,23.136L28.896,23.232L28.864,23.328L28.831,23.423L28.797,23.517L28.761,23.611L28.724,23.704L28.685,23.796L28.646,23.888L28.605,23.98L28.563,24.07L28.52,24.16L28.475,24.249L28.43,24.337L28.383,24.425L28.335,24.512L28.286,24.598L28.236,24.684L28.184,24.769L28.132,24.853L28.078,24.936L28.023,25.018L27.968,25.1L27.911,25.181L27.853,25.261L27.794,25.34L27.734,25.418L27.673,25.496L27.61,25.573L27.547,25.648L27.483,25.723L27.418,25.797L27.41,25.806L27.483,25.846L27.567,25.893L27.65,25.942L27.733,25.991L27.817,26.042L27.901,26.095L27.984,26.148L28.068,26.203L28.152,26.259L28.236,26.317L28.32,26.375L28.404,26.435L28.489,26.497L28.573,26.559L28.657,26.623L28.741,26.688L28.825,26.754L28.909,26.822L28.993,26.891L29.076,26.961L29.16,27.033L29.244,27.106L29.327,27.18L29.41,27.255L29.494,27.332L29.577,27.41L29.659,27.489L29.742,27.57L29.824,27.652L29.906,27.735L29.988,27.82L30.07,27.905L30.151,27.992L30.232,28.081L30.313,28.17L30.393,28.261L30.473,28.354L30.553,28.447L30.632,28.542L30.711,28.638L30.789,28.735L30.867,28.834L30.945,28.934L31.022,29.035L31.098,29.138L31.174,29.242L31.25,29.347L31.325,29.453L31.399,29.561L31.473,29.67L31.546,29.78L31.619,29.892L31.691,30.005L31.763,30.119L31.834,30.234L31.904,30.351L31.973,30.469L32.042,30.588L32.11,30.709L32.177,30.831L32.244,30.954L32.31,31.079L32.375,31.205L32.439,31.332L32.502,31.46L32.565,31.59L32.626,31.721L32.687,31.853L32.747,31.986L32.806,32.121L32.864,32.257L32.921,32.394L32.978,32.533L33.033,32.673L33.087,32.814L33.14,32.957L33.192,33.1L33.244,33.245L33.294,33.392L33.343,33.539L33.391,33.688L33.437,33.838L33.483,33.99L33.528,34.142L33.571,34.296L33.613,34.452L33.654,34.608L33.694,34.766L33.733,34.925L33.77,35.085L33.806,35.246L33.824,35.328L33.841,35.409L33.858,35.491L33.874,35.574L33.891,35.656L33.906,35.739L33.922,35.822L33.937,35.905L33.952,35.989L33.967,36.073L33.981,36.158L33.995,36.242L34.008,36.327L34.022,36.413L34.035,36.499L34.047,36.584L34.059,36.671L34.071,36.757L34.082,36.844L34.094,36.931L34.104,37.019L34.115,37.107L34.125,37.195L34.134,37.283L34.144,37.372L34.152,37.461L34.161,37.551L34.169,37.64L34.177,37.73L34.184,37.821L34.191,37.911L34.198,38.002L34.204,38.094L34.21,38.185L34.215,38.277L34.22,38.369L34.225,38.462L34.229,38.555L34.233,38.648L34.237,38.741L34.24,38.835L34.243,38.929L34.245,39.024L34.247,39.118L34.248,39.213L34.249,39.308L34.25,39.404L34.252,40.25L9.748,40.25L9.75,39.404L9.751,39.308L9.752,39.213L9.753,39.118L9.755,39.023L9.757,38.929L9.76,38.835L9.763,38.741L9.767,38.648L9.771,38.555L9.775,38.462L9.78,38.369L9.785,38.277L9.79,38.185L9.796,38.094L9.802,38.002L9.809,37.911L9.816,37.821L9.823,37.73L9.831,37.64L9.839,37.551L9.848,37.461L9.856,37.372L9.866,37.283L9.875,37.195L9.885,37.107L9.896,37.019L9.906,36.931L9.918,36.844L9.929,36.757L9.941,36.671L9.953,36.584L9.965,36.499L9.978,36.413L9.992,36.327L10.005,36.242L10.019,36.158L10.033,36.073L10.048,35.989L10.063,35.906L10.078,35.822L10.094,35.739L10.109,35.656L10.126,35.574L10.142,35.491L10.159,35.409L10.176,35.328L10.194,35.246L10.23,35.085L10.267,34.925L10.306,34.766L10.346,34.608L10.387,34.452L10.429,34.296L10.472,34.142L10.517,33.99L10.563,33.838L10.609,33.688L10.657,33.539L10.706,33.392L10.756,33.245L10.808,33.1L10.86,32.957L10.913,32.814L10.967,32.673L11.022,32.533L11.079,32.394L11.136,32.257L11.194,32.121L11.253,31.986L11.313,31.853L11.374,31.721L11.435,31.59L11.498,31.46L11.561,31.332L11.625,31.205L11.69,31.079L11.756,30.954L11.823,30.831L11.89,30.709L11.958,30.588L12.027,30.469L12.096,30.351L12.166,30.234L12.237,30.119L12.309,30.005L12.381,29.892L12.454,29.78L12.527,29.67L12.601,29.561L12.675,29.453L12.75,29.347L12.826,29.242L12.902,29.138L12.978,29.035L13.055,28.934L13.133,28.834L13.211,28.735L13.289,28.638L13.368,28.542L13.447,28.447L13.527,28.354L13.607,28.261L13.687,28.17L13.768,28.081L13.849,27.992L13.93,27.905L14.012,27.82L14.094,27.735L14.176,27.652L14.258,27.57L14.341,27.489L14.423,27.41L14.506,27.332L14.59,27.255L14.673,27.18L14.756,27.106L14.84,27.033L14.924,26.961L15.007,26.891L15.091,26.822L15.175,26.754L15.259,26.688L15.343,26.623L15.427,26.559L15.511,26.497L15.596,26.435L15.68,26.375L15.764,26.317L15.848,26.259L15.932,26.203L16.016,26.148L16.099,26.095L16.183,26.042L16.267,25.991L16.35,25.942L16.434,25.893L16.517,25.846L16.59,25.806L16.582,25.797L16.517,25.723L16.453,25.648L16.39,25.573L16.327,25.496L16.266,25.418L16.206,25.34L16.147,25.261L16.089,25.181L16.032,25.1L15.977,25.018L15.922,24.936L15.868,24.853L15.816,24.769L15.764,24.684L15.714,24.598L15.665,24.512L15.617,24.425L15.57,24.337L15.525,24.249L15.48,24.16L15.437,24.07L15.395,23.98L15.354,23.888L15.315,23.796L15.276,23.704L15.239,23.611L15.203,23.517L15.169,23.423L15.136,23.328L15.104,23.232L15.073,23.136L15.044,23.039L15.016,22.942L14.989,22.844L14.964,22.745L14.94,22.646L14.917,22.547L14.896,22.447L14.876,22.346L14.858,22.245L14.841,22.144L14.825,22.042L14.811,21.939L14.798,21.837L14.787,21.733L14.777,21.63L14.769,21.526L14.762,21.421L14.757,21.317L14.753,21.211L14.751,21.106L14.75,21.001L14.75,20.937L14.751,20.874L14.752,20.812L14.754,20.749L14.757,20.687L14.76,20.624L14.763,20.562L14.767,20.5L14.772,20.439L14.777,20.377L14.782,20.315L14.788,20.254L14.795,20.193L14.802,20.131L14.81,20.07L14.818,20.01L14.827,19.949L14.836,19.888L14.846,19.828L14.856,19.768L14.866,19.708L14.878,19.648L14.889,19.588L14.901,19.529L14.914,19.47L14.927,19.411L14.941,19.352L14.955,19.293L14.97,19.234L14.985,19.176L15,19.118L15.016,19.06L15.033,19.002L15.05,18.945L15.067,18.887L15.085,18.83L15.103,18.773L15.122,18.716L15.141,18.66L15.161,18.603L15.181,18.547L15.202,18.491L15.223,18.436L15.245,18.38L15.267,18.325L15.289,18.27L15.312,18.215L15.335,18.161L15.359,18.106L15.383,18.052L15.408,17.998L15.433,17.945L15.458,17.892L15.484,17.838L15.51,17.786L15.537,17.733L15.564,17.681L15.591,17.629L15.619,17.577L15.648,17.525L15.676,17.474L15.706,17.423L15.735,17.372L15.765,17.321L15.795,17.271L15.826,17.221L15.857,17.171L15.889,17.122L15.921,17.073L15.953,17.024L15.986,16.975L16.019,16.927L16.052,16.879L16.086,16.831L16.12,16.784L16.155,16.736L16.189,16.689L16.225,16.643L16.26,16.597L16.296,16.55L16.333,16.505L16.369,16.459L16.407,16.414L16.444,16.369L16.482,16.325L16.52,16.281L16.558,16.237L16.597,16.193L16.636,16.15L16.676,16.107L16.716,16.064L16.756,16.022L16.796,15.98L16.837,15.938L16.878,15.897L16.92,15.856L16.962,15.815L17.004,15.775L17.046,15.735L17.089,15.696L17.132,15.656L17.175,15.617L17.219,15.579L17.263,15.54L17.307,15.502L17.352,15.465L17.397,15.427L17.442,15.391L17.488,15.354L17.534,15.318L17.58,15.282L17.626,15.246L17.673,15.211L17.72,15.177L17.761,15.147L17.744,15.114L17.724,15.072L17.703,15.03L17.684,14.988L17.665,14.946L17.646,14.903L17.627,14.86L17.609,14.817L17.592,14.774L17.575,14.73L17.558,14.687L17.542,14.643L17.526,14.599L17.51,14.555L17.495,14.51L17.48,14.466L17.466,14.421L17.452,14.376L17.439,14.331L17.426,14.285L17.413,14.24L17.401,14.194L17.39,14.148L17.378,14.102L17.368,14.056L17.357,14.009L17.348,13.963L17.338,13.916L17.329,13.869L17.321,13.822L17.313,13.775L17.305,13.727L17.298,13.679L17.292,13.632L17.286,13.584L17.28,13.536L17.275,13.488L17.27,13.44L17.266,13.391L17.262,13.343L17.259,13.294L17.256,13.246L17.254,13.197L17.252,13.148L17.251,13.099L17.25,13.049L17.25,13L17.25,12.939L17.252,12.878L17.253,12.817L17.256,12.756L17.26,12.696L17.264,12.635L17.269,12.575L17.274,12.515L17.281,12.455L17.288,12.396L17.296,12.336L17.305,12.277L17.314,12.219L17.324,12.16L17.335,12.102L17.346,12.043L17.359,11.985L17.372,11.928L17.385,11.87L17.399,11.813L17.414,11.756L17.43,11.7L17.447,11.644L17.464,11.588L17.481,11.532L17.5,11.476L17.519,11.421L17.538,11.367L17.559,11.312L17.58,11.258L17.601,11.204L17.623,11.151L17.646,11.097L17.67,11.045L17.694,10.992L17.719,10.94L17.744,10.888L17.77,10.837L17.796,10.786L17.824,10.735L17.851,10.685L17.88,10.635L17.908,10.585L17.938,10.536L17.968,10.487L17.998,10.439L18.03,10.391L18.061,10.343L18.094,10.296L18.126,10.249L18.16,10.203L18.194,10.157L18.228,10.112L18.263,10.067L18.299,10.022L18.335,9.978L18.371,9.934L18.408,9.891L18.446,9.848L18.484,9.806L18.522,9.764L18.561,9.722L18.601,9.681L18.641,9.641L18.681,9.601L18.722,9.561L18.764,9.522L18.806,9.484L18.848,9.446L18.891,9.408L18.934,9.371L18.978,9.335L19.022,9.299L19.067,9.263L19.112,9.228L19.157,9.194L19.203,9.16L19.249,9.126L19.296,9.094L19.343,9.061L19.391,9.03L19.439,8.999L19.487,8.968L19.536,8.938L19.585,8.908L19.635,8.88L19.685,8.851L19.735,8.824L19.786,8.796L19.837,8.77L19.888,8.744L19.94,8.719L19.992,8.694L20.045,8.67L20.097,8.646L20.151,8.623L20.204,8.601L20.258,8.58L20.312,8.559L20.367,8.538L20.421,8.519L20.476,8.5L20.532,8.481L20.588,8.464L20.644,8.447L20.7,8.43L20.756,8.414L20.813,8.4L20.87,8.385L20.928,8.372L20.985,8.359L21.043,8.346L21.102,8.335L21.16,8.324L21.219,8.314L21.277,8.305L21.337,8.296L21.396,8.288L21.455,8.281L21.515,8.274L21.575,8.269L21.635,8.264L21.696,8.26L21.756,8.256L21.817,8.253L21.878,8.252L21.939,8.25L22,8.25L22.061,8.25ZM21.958,9.75L21.916,9.751L21.874,9.752L21.832,9.754L21.79,9.757L21.749,9.76L21.708,9.763L21.667,9.767L21.626,9.771L21.585,9.776L21.544,9.782L21.504,9.787L21.464,9.794L21.424,9.801L21.384,9.808L21.344,9.816L21.304,9.824L21.265,9.833L21.226,9.842L21.187,9.852L21.148,9.863L21.109,9.873L21.071,9.884L21.033,9.896L20.995,9.908L20.957,9.921L20.919,9.934L20.882,9.947L20.845,9.961L20.808,9.975L20.771,9.99L20.735,10.005L20.698,10.021L20.662,10.037L20.627,10.053L20.591,10.07L20.556,10.087L20.52,10.105L20.486,10.123L20.451,10.142L20.416,10.161L20.382,10.18L20.348,10.2L20.315,10.22L20.282,10.24L20.248,10.261L20.216,10.283L20.183,10.304L20.151,10.327L20.119,10.349L20.087,10.372L20.056,10.395L20.024,10.419L19.993,10.443L19.963,10.467L19.933,10.492L19.903,10.517L19.873,10.542L19.844,10.568L19.815,10.594L19.786,10.62L19.757,10.647L19.729,10.674L19.702,10.702L19.674,10.729L19.647,10.757L19.62,10.786L19.594,10.815L19.568,10.844L19.542,10.873L19.517,10.903L19.492,10.933L19.467,10.963L19.443,10.994L19.419,11.024L19.395,11.055L19.372,11.087L19.349,11.119L19.327,11.151L19.304,11.183L19.283,11.216L19.261,11.248L19.24,11.282L19.22,11.315L19.2,11.348L19.18,11.382L19.161,11.417L19.142,11.451L19.123,11.486L19.105,11.52L19.087,11.556L19.07,11.591L19.053,11.626L19.037,11.662L19.021,11.698L19.005,11.735L18.99,11.771L18.975,11.808L18.961,11.845L18.947,11.882L18.934,11.919L18.921,11.957L18.908,11.995L18.896,12.033L18.884,12.071L18.873,12.109L18.863,12.148L18.852,12.187L18.842,12.226L18.833,12.265L18.824,12.304L18.816,12.344L18.808,12.384L18.801,12.424L18.794,12.464L18.787,12.504L18.782,12.544L18.776,12.585L18.771,12.626L18.767,12.667L18.763,12.708L18.76,12.749L18.757,12.79L18.754,12.832L18.752,12.874L18.751,12.916L18.75,12.958L18.75,13L18.75,13.034L18.751,13.068L18.752,13.102L18.753,13.136L18.754,13.169L18.756,13.203L18.758,13.236L18.761,13.269L18.764,13.302L18.767,13.336L18.771,13.369L18.774,13.401L18.779,13.434L18.783,13.467L18.788,13.499L18.793,13.532L18.799,13.564L18.804,13.596L18.81,13.628L18.817,13.66L18.824,13.692L18.831,13.724L18.838,13.755L18.846,13.787L18.854,13.818L18.862,13.85L18.87,13.881L18.879,13.912L18.888,13.943L18.898,13.973L18.907,14.004L18.918,14.035L18.928,14.065L18.938,14.095L18.949,14.125L18.961,14.155L18.972,14.185L18.984,14.215L18.996,14.245L19.008,14.274L19.021,14.303L19.034,14.333L19.047,14.362L19.06,14.391L19.074,14.419L19.088,14.448L19.102,14.477L19.117,14.505L19.132,14.533L19.147,14.561L19.162,14.589L19.178,14.617L19.194,14.644L19.21,14.672L19.226,14.699L19.243,14.726L19.26,14.753L19.277,14.78L19.295,14.807L19.312,14.833L19.33,14.859L19.348,14.886L19.367,14.912L19.875,15.613L19.113,16.054L19.073,16.078L19.033,16.102L18.993,16.126L18.954,16.151L18.914,16.176L18.875,16.201L18.836,16.226L18.797,16.252L18.759,16.279L18.72,16.305L18.682,16.332L18.645,16.359L18.607,16.386L18.569,16.414L18.532,16.442L18.495,16.47L18.459,16.499L18.422,16.527L18.386,16.557L18.35,16.586L18.314,16.616L18.279,16.646L18.243,16.676L18.208,16.706L18.173,16.737L18.139,16.768L18.105,16.799L18.071,16.831L18.037,16.863L18.003,16.895L17.97,16.927L17.937,16.96L17.904,16.993L17.872,17.026L17.839,17.059L17.807,17.093L17.776,17.127L17.744,17.161L17.713,17.195L17.682,17.23L17.652,17.265L17.621,17.3L17.591,17.336L17.562,17.371L17.532,17.407L17.503,17.443L17.474,17.479L17.446,17.516L17.417,17.553L17.389,17.59L17.361,17.627L17.334,17.665L17.307,17.702L17.28,17.74L17.254,17.778L17.227,17.817L17.201,17.855L17.176,17.894L17.15,17.933L17.126,17.972L17.101,18.012L17.076,18.051L17.052,18.091L17.029,18.131L17.005,18.171L16.982,18.212L16.96,18.252L16.937,18.293L16.915,18.334L16.893,18.376L16.872,18.417L16.851,18.459L16.83,18.501L16.809,18.543L16.789,18.585L16.769,18.627L16.75,18.67L16.731,18.712L16.712,18.755L16.694,18.798L16.676,18.842L16.658,18.885L16.641,18.929L16.624,18.973L16.607,19.017L16.591,19.061L16.575,19.105L16.559,19.15L16.544,19.194L16.529,19.239L16.515,19.284L16.5,19.329L16.487,19.374L16.473,19.42L16.46,19.466L16.448,19.511L16.435,19.557L16.424,19.603L16.412,19.649L16.401,19.696L16.39,19.742L16.38,19.789L16.37,19.836L16.36,19.883L16.351,19.93L16.342,19.977L16.334,20.025L16.326,20.072L16.318,20.12L16.311,20.168L16.304,20.215L16.297,20.264L16.291,20.312L16.286,20.36L16.28,20.409L16.276,20.457L16.271,20.506L16.267,20.555L16.264,20.604L16.26,20.653L16.258,20.702L16.255,20.751L16.253,20.801L16.252,20.85L16.251,20.9L16.25,20.95L16.25,20.999L16.251,21.084L16.252,21.168L16.255,21.251L16.26,21.335L16.265,21.417L16.272,21.5L16.279,21.582L16.288,21.664L16.298,21.745L16.309,21.826L16.322,21.907L16.335,21.987L16.35,22.067L16.365,22.146L16.382,22.225L16.4,22.304L16.419,22.382L16.439,22.46L16.46,22.537L16.482,22.614L16.505,22.69L16.53,22.766L16.555,22.842L16.581,22.917L16.608,22.992L16.637,23.066L16.666,23.14L16.696,23.213L16.728,23.285L16.76,23.357L16.793,23.429L16.827,23.5L16.862,23.571L16.899,23.641L16.936,23.71L16.974,23.779L17.013,23.847L17.052,23.915L17.093,23.982L17.135,24.049L17.177,24.115L17.221,24.18L17.265,24.245L17.31,24.309L17.356,24.373L17.403,24.435L17.451,24.498L17.499,24.559L17.548,24.62L17.599,24.68L17.65,24.74L17.701,24.799L17.754,24.857L17.807,24.914L17.861,24.971L17.916,25.027L17.972,25.082L18.028,25.136L18.085,25.19L18.143,25.243L18.202,25.295L18.261,25.347L18.321,25.397L19.406,26.287L18.099,26.759L18.037,26.782L17.974,26.807L17.911,26.833L17.848,26.859L17.783,26.887L17.718,26.917L17.653,26.947L17.586,26.979L17.52,27.012L17.453,27.046L17.385,27.081L17.317,27.118L17.249,27.156L17.18,27.195L17.11,27.235L17.041,27.276L16.971,27.319L16.9,27.363L16.83,27.408L16.759,27.454L16.688,27.502L16.616,27.551L16.545,27.601L16.473,27.652L16.401,27.705L16.329,27.758L16.256,27.813L16.184,27.869L16.111,27.927L16.038,27.985L15.966,28.045L15.893,28.106L15.82,28.168L15.747,28.232L15.674,28.297L15.602,28.363L15.529,28.43L15.456,28.498L15.383,28.568L15.311,28.639L15.238,28.711L15.166,28.784L15.094,28.858L15.022,28.934L14.95,29.011L14.878,29.089L14.807,29.169L14.736,29.249L14.665,29.331L14.594,29.414L14.524,29.498L14.453,29.584L14.384,29.671L14.314,29.759L14.245,29.848L14.176,29.938L14.108,30.03L14.04,30.122L13.972,30.217L13.905,30.312L13.838,30.408L13.772,30.506L13.706,30.605L13.641,30.705L13.577,30.806L13.512,30.909L13.449,31.013L13.386,31.118L13.323,31.224L13.261,31.331L13.2,31.44L13.139,31.55L13.079,31.661L13.02,31.773L12.961,31.887L12.903,32.002L12.846,32.118L12.789,32.235L12.734,32.353L12.678,32.473L12.624,32.594L12.571,32.716L12.518,32.84L12.466,32.964L12.415,33.09L12.365,33.217L12.316,33.346L12.267,33.475L12.22,33.606L12.173,33.738L12.128,33.871L12.083,34.006L12.039,34.141L11.997,34.278L11.955,34.416L11.914,34.556L11.875,34.697L11.836,34.839L11.799,34.982L11.762,35.126L11.727,35.272L11.693,35.419L11.659,35.568L11.643,35.641L11.628,35.716L11.612,35.791L11.597,35.867L11.582,35.943L11.567,36.019L11.553,36.095L11.539,36.172L11.525,36.249L11.512,36.326L11.499,36.404L11.486,36.482L11.473,36.56L11.461,36.639L11.449,36.718L11.438,36.797L11.427,36.877L11.416,36.957L11.405,37.037L11.395,37.117L11.385,37.198L11.375,37.279L11.366,37.361L11.357,37.442L11.349,37.525L11.34,37.607L11.333,37.69L11.325,37.773L11.318,37.856L11.311,37.94L11.305,38.024L11.298,38.108L11.293,38.193L11.287,38.278L11.282,38.363L11.277,38.448L11.273,38.534L11.269,38.62L11.266,38.707L11.264,38.75L32.736,38.75L32.734,38.707L32.731,38.62L32.727,38.534L32.723,38.448L32.718,38.363L32.713,38.278L32.707,38.193L32.702,38.108L32.695,38.024L32.689,37.94L32.682,37.856L32.675,37.773L32.667,37.69L32.66,37.607L32.651,37.525L32.643,37.442L32.634,37.361L32.625,37.279L32.615,37.198L32.605,37.117L32.595,37.037L32.584,36.957L32.573,36.877L32.562,36.797L32.551,36.718L32.539,36.639L32.527,36.56L32.514,36.482L32.501,36.404L32.488,36.326L32.475,36.249L32.461,36.172L32.447,36.095L32.433,36.019L32.418,35.943L32.403,35.867L32.388,35.791L32.372,35.716L32.357,35.641L32.341,35.568L32.307,35.419L32.273,35.272L32.238,35.126L32.201,34.982L32.164,34.839L32.125,34.697L32.086,34.556L32.045,34.416L32.003,34.278L31.961,34.141L31.917,34.006L31.872,33.871L31.827,33.738L31.78,33.606L31.733,33.475L31.684,33.346L31.635,33.217L31.585,33.09L31.534,32.964L31.482,32.84L31.429,32.716L31.376,32.594L31.322,32.473L31.266,32.354L31.211,32.235L31.154,32.118L31.097,32.002L31.039,31.887L30.98,31.773L30.921,31.661L30.861,31.55L30.8,31.44L30.739,31.331L30.677,31.224L30.614,31.118L30.551,31.013L30.488,30.909L30.423,30.806L30.359,30.705L30.294,30.605L30.228,30.506L30.162,30.408L30.095,30.312L30.028,30.217L29.96,30.122L29.892,30.03L29.824,29.938L29.755,29.848L29.686,29.759L29.616,29.671L29.547,29.584L29.476,29.498L29.406,29.414L29.335,29.331L29.264,29.249L29.193,29.169L29.122,29.089L29.05,29.011L28.978,28.934L28.906,28.858L28.834,28.784L28.762,28.711L28.689,28.639L28.617,28.568L28.544,28.498L28.471,28.43L28.398,28.363L28.326,28.297L28.253,28.232L28.18,28.168L28.107,28.106L28.034,28.045L27.961,27.985L27.889,27.927L27.816,27.869L27.744,27.813L27.671,27.758L27.599,27.704L27.527,27.652L27.455,27.601L27.384,27.551L27.312,27.502L27.241,27.454L27.17,27.408L27.1,27.363L27.029,27.319L26.959,27.276L26.89,27.235L26.82,27.195L26.751,27.156L26.683,27.118L26.615,27.081L26.547,27.046L26.48,27.012L26.414,26.979L26.347,26.947L26.282,26.917L26.217,26.887L26.152,26.859L26.089,26.833L26.026,26.807L25.963,26.782L25.901,26.759L24.594,26.287L25.679,25.397L25.739,25.347L25.798,25.295L25.857,25.243L25.915,25.19L25.972,25.136L26.028,25.082L26.084,25.027L26.139,24.971L26.193,24.914L26.246,24.857L26.299,24.799L26.35,24.74L26.401,24.68L26.452,24.62L26.501,24.559L26.549,24.498L26.597,24.435L26.644,24.373L26.69,24.309L26.735,24.245L26.779,24.18L26.823,24.115L26.865,24.049L26.907,23.982L26.948,23.915L26.987,23.847L27.026,23.779L27.064,23.71L27.101,23.641L27.138,23.571L27.173,23.5L27.207,23.429L27.24,23.357L27.272,23.285L27.304,23.213L27.334,23.139L27.363,23.066L27.392,22.992L27.419,22.917L27.445,22.842L27.47,22.767L27.495,22.69L27.518,22.614L27.54,22.537L27.561,22.46L27.581,22.382L27.6,22.304L27.618,22.225L27.635,22.146L27.65,22.067L27.665,21.987L27.678,21.907L27.69,21.826L27.702,21.745L27.712,21.664L27.721,21.582L27.728,21.5L27.735,21.417L27.74,21.335L27.745,21.251L27.748,21.168L27.749,21.084L27.75,20.999L27.75,20.95L27.749,20.9L27.748,20.851L27.747,20.801L27.745,20.751L27.742,20.702L27.74,20.653L27.736,20.604L27.733,20.555L27.729,20.506L27.724,20.457L27.72,20.408L27.714,20.36L27.709,20.312L27.703,20.264L27.696,20.215L27.689,20.167L27.682,20.12L27.674,20.072L27.666,20.025L27.658,19.977L27.649,19.93L27.64,19.883L27.63,19.836L27.62,19.789L27.61,19.742L27.599,19.696L27.588,19.65L27.576,19.603L27.565,19.557L27.552,19.511L27.54,19.466L27.527,19.42L27.513,19.374L27.499,19.329L27.485,19.284L27.471,19.239L27.456,19.194L27.441,19.15L27.425,19.105L27.409,19.061L27.393,19.017L27.376,18.973L27.359,18.929L27.342,18.885L27.324,18.842L27.306,18.798L27.288,18.755L27.269,18.712L27.25,18.67L27.231,18.627L27.211,18.585L27.191,18.543L27.17,18.501L27.149,18.459L27.128,18.417L27.107,18.376L27.085,18.334L27.063,18.293L27.041,18.253L27.018,18.212L26.995,18.171L26.971,18.131L26.948,18.091L26.924,18.051L26.899,18.012L26.874,17.972L26.849,17.933L26.824,17.894L26.799,17.855L26.773,17.817L26.746,17.778L26.72,17.74L26.693,17.702L26.666,17.665L26.639,17.627L26.611,17.59L26.583,17.553L26.554,17.516L26.526,17.479L26.497,17.443L26.468,17.407L26.438,17.371L26.409,17.336L26.379,17.3L26.348,17.265L26.318,17.23L26.287,17.195L26.256,17.161L26.224,17.127L26.193,17.093L26.161,17.059L26.128,17.026L26.096,16.993L26.063,16.96L26.03,16.927L25.997,16.895L25.963,16.863L25.929,16.831L25.895,16.799L25.861,16.768L25.827,16.737L25.792,16.706L25.757,16.676L25.721,16.646L25.686,16.616L25.65,16.586L25.614,16.557L25.578,16.527L25.541,16.499L25.505,16.47L25.468,16.442L25.431,16.414L25.393,16.386L25.356,16.359L25.318,16.332L25.28,16.305L25.241,16.279L25.203,16.252L25.164,16.226L25.125,16.201L25.086,16.176L25.046,16.151L25.007,16.126L24.967,16.102L24.927,16.078L24.887,16.054L24.126,15.613L24.633,14.912L24.652,14.885L24.67,14.859L24.688,14.833L24.705,14.807L24.723,14.78L24.74,14.753L24.757,14.726L24.774,14.699L24.79,14.672L24.806,14.644L24.822,14.617L24.838,14.589L24.853,14.561L24.868,14.533L24.883,14.505L24.898,14.477L24.912,14.448L24.926,14.42L24.94,14.391L24.953,14.362L24.966,14.333L24.979,14.303L24.992,14.274L25.004,14.245L25.016,14.215L25.028,14.185L25.039,14.155L25.051,14.125L25.062,14.095L25.072,14.065L25.082,14.035L25.092,14.004L25.102,13.973L25.112,13.943L25.121,13.912L25.13,13.881L25.138,13.85L25.146,13.818L25.154,13.787L25.162,13.755L25.169,13.724L25.176,13.692L25.183,13.66L25.19,13.628L25.196,13.596L25.201,13.564L25.207,13.532L25.212,13.499L25.217,13.467L25.221,13.434L25.226,13.401L25.229,13.368L25.233,13.336L25.236,13.303L25.239,13.269L25.242,13.236L25.244,13.203L25.246,13.169L25.247,13.135L25.248,13.102L25.249,13.068L25.25,13.034L25.25,13.001L25.25,12.958L25.249,12.916L25.248,12.874L25.246,12.832L25.243,12.79L25.24,12.749L25.237,12.708L25.233,12.667L25.229,12.626L25.224,12.585L25.218,12.544L25.213,12.504L25.206,12.464L25.199,12.424L25.192,12.384L25.184,12.344L25.176,12.304L25.167,12.265L25.157,12.226L25.148,12.187L25.138,12.148L25.127,12.109L25.116,12.071L25.104,12.033L25.092,11.995L25.079,11.957L25.066,11.919L25.053,11.882L25.039,11.845L25.025,11.808L25.01,11.771L24.995,11.735L24.979,11.698L24.963,11.662L24.947,11.627L24.93,11.591L24.913,11.556L24.895,11.52L24.877,11.486L24.858,11.451L24.839,11.416L24.82,11.382L24.8,11.349L24.78,11.315L24.76,11.281L24.739,11.248L24.717,11.216L24.696,11.183L24.673,11.151L24.651,11.119L24.628,11.087L24.605,11.056L24.581,11.024L24.557,10.993L24.533,10.963L24.508,10.933L24.483,10.903L24.458,10.873L24.432,10.844L24.406,10.815L24.38,10.786L24.353,10.757L24.326,10.729L24.298,10.702L24.271,10.674L24.243,10.647L24.214,10.62L24.185,10.594L24.156,10.568L24.127,10.542L24.097,10.517L24.067,10.492L24.037,10.467L24.007,10.443L23.976,10.419L23.944,10.395L23.913,10.372L23.881,10.349L23.849,10.327L23.817,10.304L23.784,10.283L23.752,10.261L23.718,10.24L23.685,10.22L23.652,10.2L23.618,10.18L23.584,10.161L23.549,10.142L23.514,10.123L23.48,10.105L23.444,10.087L23.409,10.07L23.373,10.053L23.338,10.037L23.302,10.021L23.265,10.005L23.229,9.99L23.192,9.975L23.155,9.961L23.118,9.947L23.081,9.934L23.043,9.921L23.005,9.908L22.967,9.896L22.929,9.884L22.891,9.873L22.852,9.863L22.813,9.852L22.774,9.842L22.735,9.833L22.696,9.824L22.656,9.816L22.616,9.808L22.576,9.801L22.536,9.794L22.496,9.787L22.456,9.782L22.415,9.776L22.374,9.771L22.333,9.767L22.292,9.763L22.251,9.76L22.21,9.757L22.168,9.754L22.126,9.752L22.084,9.751L22.042,9.75L22,9.75L21.958,9.75Z" style="fill:rgb(253,115,55);"/>
                </g>
            </g>
        </g>
        <g transform="matrix(0.75,0,0,0.75,2110,3600)">
            <g transform="matrix(1,0,0,1,-40,-40)">
                <g transform="matrix(2,0,0,2,-5,-6)">
                    <g>
                        <g>
                            <path d="M22.5,11.63L22.5,6" style="fill:rgb(253,115,55);"/>
                            <path d="M22.541,5.251L22.581,5.254L22.621,5.26L22.661,5.268L22.701,5.277L22.739,5.289L22.778,5.303L22.815,5.319L22.851,5.337L22.887,5.357L22.921,5.379L22.954,5.403L22.986,5.428L23.016,5.455L23.044,5.484L23.072,5.514L23.097,5.546L23.121,5.579L23.143,5.613L23.163,5.649L23.181,5.685L23.197,5.722L23.211,5.761L23.223,5.799L23.232,5.839L23.24,5.879L23.246,5.919L23.249,5.959L23.25,6L23.25,11.63L23.249,11.671L23.246,11.711L23.24,11.751L23.232,11.791L23.223,11.831L23.211,11.869L23.197,11.908L23.181,11.945L23.163,11.981L23.143,12.017L23.121,12.051L23.097,12.084L23.072,12.116L23.044,12.146L23.016,12.174L22.986,12.202L22.954,12.227L22.921,12.251L22.887,12.273L22.851,12.293L22.815,12.311L22.778,12.327L22.739,12.341L22.701,12.353L22.661,12.362L22.621,12.37L22.581,12.376L22.541,12.379L22.5,12.38L22.459,12.379L22.419,12.376L22.379,12.37L22.339,12.362L22.299,12.353L22.261,12.341L22.222,12.327L22.185,12.311L22.149,12.293L22.113,12.273L22.079,12.251L22.046,12.227L22.014,12.202L21.984,12.174L21.956,12.146L21.928,12.116L21.903,12.084L21.879,12.051L21.857,12.017L21.837,11.981L21.819,11.945L21.803,11.908L21.789,11.869L21.777,11.831L21.768,11.791L21.76,11.751L21.754,11.711L21.751,11.671L21.75,11.63L21.75,6L21.751,5.959L21.754,5.919L21.76,5.879L21.768,5.839L21.777,5.799L21.789,5.761L21.803,5.722L21.819,5.685L21.837,5.649L21.857,5.613L21.879,5.579L21.903,5.546L21.928,5.514L21.956,5.484L21.984,5.455L22.014,5.428L22.046,5.403L22.079,5.379L22.113,5.357L22.149,5.337L22.185,5.319L22.222,5.303L22.261,5.289L22.299,5.277L22.339,5.268L22.379,5.26L22.419,5.254L22.459,5.251L22.5,5.25L22.541,5.251Z" style="fill:rgb(253,115,55);"/>
                        </g>
                        <g>
                            <path d="M22.5,25C22.5,25 27,17.5 25.5,14.5C25.5,14.5 24.5,12 22.5,12C20.5,12 19.5,14.5 19.5,14.5C18,17.5 22.5,25 22.5,25" style="fill:rgb(253,115,55);"/>
                            <path d="M22.561,11.251L22.622,11.252L22.683,11.255L22.743,11.259L22.803,11.265L22.862,11.271L22.921,11.278L22.979,11.287L23.037,11.297L23.094,11.307L23.151,11.319L23.207,11.332L23.263,11.345L23.318,11.36L23.373,11.375L23.427,11.392L23.48,11.409L23.533,11.427L23.585,11.446L23.637,11.465L23.688,11.486L23.739,11.507L23.788,11.529L23.838,11.552L23.887,11.575L23.934,11.599L23.982,11.623L24.029,11.649L24.075,11.674L24.121,11.7L24.165,11.727L24.21,11.755L24.254,11.782L24.297,11.811L24.34,11.839L24.382,11.868L24.423,11.898L24.464,11.928L24.504,11.958L24.544,11.989L24.583,12.02L24.621,12.051L24.659,12.083L24.697,12.114L24.734,12.146L24.77,12.179L24.806,12.211L24.841,12.244L24.876,12.277L24.91,12.31L24.944,12.343L24.977,12.376L25.009,12.41L25.043,12.444L25.104,12.511L25.165,12.578L25.224,12.646L25.281,12.714L25.336,12.781L25.389,12.849L25.44,12.916L25.489,12.982L25.537,13.048L25.583,13.114L25.627,13.178L25.669,13.242L25.71,13.305L25.749,13.366L25.786,13.426L25.821,13.485L25.855,13.543L25.887,13.599L25.918,13.653L25.947,13.706L25.974,13.757L26,13.805L26.025,13.853L26.067,13.938L26.104,14.014L26.135,14.081L26.16,14.135L26.178,14.178L26.184,14.191L26.194,14.211L26.216,14.259L26.237,14.306L26.258,14.354L26.277,14.402L26.296,14.45L26.314,14.499L26.332,14.548L26.349,14.597L26.364,14.647L26.38,14.696L26.394,14.746L26.408,14.796L26.421,14.846L26.433,14.897L26.445,14.948L26.456,14.998L26.467,15.049L26.477,15.101L26.486,15.152L26.494,15.204L26.502,15.256L26.51,15.307L26.517,15.359L26.523,15.412L26.528,15.464L26.534,15.517L26.538,15.569L26.542,15.622L26.546,15.675L26.549,15.728L26.551,15.781L26.553,15.835L26.555,15.888L26.556,15.942L26.556,15.995L26.556,16.049L26.556,16.103L26.555,16.157L26.553,16.212L26.552,16.266L26.549,16.321L26.547,16.375L26.544,16.43L26.54,16.485L26.536,16.541L26.527,16.65L26.517,16.76L26.504,16.871L26.491,16.983L26.476,17.094L26.459,17.206L26.441,17.319L26.422,17.431L26.401,17.544L26.379,17.658L26.356,17.771L26.332,17.885L26.307,17.999L26.28,18.113L26.252,18.227L26.224,18.342L26.194,18.456L26.163,18.571L26.132,18.685L26.099,18.8L26.066,18.914L26.031,19.029L25.996,19.144L25.96,19.258L25.923,19.372L25.886,19.487L25.848,19.601L25.809,19.715L25.769,19.828L25.729,19.942L25.688,20.055L25.647,20.167L25.605,20.28L25.563,20.392L25.52,20.504L25.477,20.615L25.433,20.726L25.389,20.836L25.345,20.946L25.3,21.055L25.255,21.163L25.21,21.271L25.164,21.379L25.118,21.485L25.073,21.591L25.027,21.696L24.981,21.801L24.934,21.904L24.888,22.007L24.842,22.109L24.795,22.21L24.703,22.409L24.612,22.604L24.52,22.794L24.43,22.98L24.341,23.162L24.253,23.338L24.167,23.509L24.082,23.674L24,23.833L23.92,23.986L23.842,24.133L23.767,24.273L23.696,24.406L23.627,24.532L23.562,24.65L23.501,24.761L23.443,24.864L23.342,25.043L23.26,25.187L23.197,25.294L23.146,25.381L22.5,25L21.854,25.381L21.803,25.294L21.74,25.187L21.658,25.043L21.557,24.864L21.499,24.761L21.438,24.65L21.373,24.532L21.304,24.406L21.233,24.273L21.158,24.133L21.08,23.986L21,23.833L20.918,23.674L20.833,23.509L20.747,23.338L20.659,23.162L20.57,22.98L20.48,22.794L20.388,22.604L20.297,22.409L20.205,22.21L20.158,22.109L20.112,22.007L20.066,21.904L20.019,21.801L19.973,21.696L19.927,21.591L19.882,21.485L19.836,21.379L19.79,21.271L19.745,21.163L19.7,21.055L19.655,20.946L19.611,20.836L19.567,20.726L19.523,20.615L19.48,20.504L19.437,20.392L19.395,20.28L19.353,20.168L19.312,20.055L19.271,19.942L19.231,19.828L19.191,19.715L19.152,19.601L19.114,19.487L19.077,19.372L19.04,19.258L19.004,19.144L18.969,19.029L18.934,18.914L18.901,18.8L18.868,18.685L18.837,18.571L18.806,18.456L18.776,18.342L18.748,18.227L18.72,18.113L18.693,17.999L18.668,17.885L18.644,17.771L18.621,17.658L18.599,17.544L18.578,17.431L18.559,17.319L18.541,17.206L18.524,17.094L18.509,16.983L18.496,16.871L18.483,16.76L18.473,16.65L18.464,16.541L18.46,16.485L18.456,16.43L18.453,16.375L18.451,16.321L18.448,16.266L18.447,16.212L18.445,16.157L18.444,16.103L18.444,16.049L18.444,15.995L18.444,15.942L18.445,15.888L18.447,15.835L18.449,15.781L18.451,15.728L18.454,15.675L18.458,15.622L18.462,15.569L18.466,15.516L18.472,15.464L18.477,15.412L18.483,15.359L18.49,15.307L18.498,15.256L18.506,15.204L18.514,15.152L18.523,15.101L18.533,15.049L18.544,14.998L18.555,14.948L18.567,14.897L18.579,14.846L18.592,14.796L18.606,14.746L18.62,14.696L18.636,14.647L18.651,14.597L18.668,14.548L18.686,14.499L18.704,14.45L18.723,14.402L18.742,14.354L18.763,14.306L18.784,14.259L18.806,14.211L18.816,14.191L18.822,14.178L18.84,14.135L18.865,14.081L18.896,14.014L18.933,13.938L18.975,13.853L19,13.805L19.026,13.757L19.053,13.706L19.082,13.653L19.113,13.599L19.145,13.543L19.179,13.485L19.214,13.426L19.251,13.366L19.29,13.305L19.331,13.242L19.373,13.178L19.417,13.114L19.463,13.048L19.511,12.982L19.56,12.916L19.611,12.849L19.664,12.781L19.719,12.714L19.776,12.646L19.835,12.578L19.896,12.511L19.957,12.444L19.991,12.41L20.023,12.376L20.056,12.343L20.09,12.31L20.124,12.277L20.159,12.244L20.194,12.211L20.23,12.179L20.266,12.146L20.303,12.114L20.341,12.083L20.379,12.051L20.417,12.02L20.456,11.989L20.496,11.958L20.536,11.928L20.577,11.898L20.618,11.868L20.66,11.839L20.703,11.811L20.746,11.782L20.79,11.755L20.835,11.727L20.879,11.7L20.925,11.674L20.971,11.649L21.018,11.623L21.066,11.599L21.113,11.575L21.162,11.552L21.212,11.529L21.261,11.507L21.312,11.486L21.363,11.465L21.415,11.446L21.467,11.427L21.52,11.409L21.573,11.392L21.627,11.375L21.682,11.36L21.737,11.345L21.793,11.332L21.849,11.319L21.906,11.307L21.963,11.297L22.021,11.287L22.079,11.278L22.138,11.271L22.197,11.265L22.257,11.259L22.317,11.255L22.378,11.252L22.439,11.251L22.5,11.25L22.561,11.251ZM22.468,12.75L22.436,12.751L22.405,12.753L22.374,12.755L22.343,12.758L22.313,12.761L22.282,12.765L22.253,12.769L22.223,12.774L22.193,12.78L22.164,12.786L22.135,12.792L22.106,12.799L22.078,12.807L22.049,12.815L22.021,12.823L21.993,12.832L21.964,12.842L21.936,12.852L21.909,12.863L21.881,12.874L21.853,12.885L21.826,12.897L21.799,12.91L21.772,12.923L21.744,12.936L21.718,12.95L21.691,12.965L21.664,12.979L21.638,12.995L21.611,13.011L21.585,13.027L21.559,13.043L21.533,13.06L21.507,13.078L21.481,13.096L21.456,13.114L21.43,13.132L21.405,13.151L21.38,13.171L21.355,13.191L21.33,13.211L21.305,13.231L21.281,13.252L21.257,13.273L21.232,13.295L21.208,13.316L21.185,13.338L21.161,13.36L21.138,13.383L21.115,13.406L21.092,13.429L21.069,13.452L21.048,13.474L21.003,13.523L20.959,13.571L20.917,13.62L20.876,13.669L20.836,13.719L20.796,13.768L20.758,13.818L20.721,13.868L20.685,13.918L20.651,13.967L20.617,14.017L20.585,14.065L20.554,14.113L20.524,14.161L20.495,14.207L20.467,14.253L20.441,14.297L20.416,14.341L20.393,14.383L20.37,14.423L20.349,14.462L20.33,14.5L20.312,14.534L20.278,14.601L20.251,14.658L20.229,14.705L20.212,14.741L20.202,14.766L20.184,14.81L20.159,14.859L20.148,14.884L20.137,14.909L20.126,14.934L20.115,14.96L20.105,14.986L20.095,15.013L20.085,15.04L20.076,15.068L20.067,15.096L20.058,15.125L20.049,15.155L20.041,15.184L20.033,15.215L20.026,15.246L20.018,15.277L20.011,15.309L20.005,15.341L19.998,15.374L19.992,15.407L19.987,15.441L19.981,15.475L19.976,15.51L19.972,15.546L19.968,15.581L19.964,15.618L19.96,15.654L19.957,15.691L19.954,15.729L19.952,15.767L19.949,15.805L19.948,15.844L19.946,15.883L19.945,15.923L19.944,15.963L19.944,16.003L19.944,16.044L19.944,16.085L19.945,16.127L19.946,16.168L19.947,16.211L19.949,16.253L19.951,16.296L19.954,16.34L19.956,16.383L19.959,16.426L19.967,16.516L19.976,16.607L19.986,16.698L19.997,16.79L20.01,16.884L20.024,16.979L20.039,17.074L20.055,17.171L20.073,17.268L20.092,17.366L20.112,17.465L20.133,17.565L20.156,17.666L20.179,17.767L20.204,17.868L20.23,17.971L20.256,18.073L20.284,18.177L20.313,18.28L20.342,18.384L20.373,18.489L20.404,18.593L20.436,18.698L20.469,18.803L20.503,18.909L20.538,19.014L20.573,19.12L20.609,19.226L20.646,19.331L20.684,19.437L20.722,19.542L20.76,19.648L20.8,19.753L20.839,19.859L20.879,19.963L20.92,20.068L20.961,20.173L21.003,20.277L21.045,20.38L21.087,20.484L21.13,20.587L21.173,20.689L21.216,20.791L21.259,20.892L21.303,20.993L21.347,21.093L21.391,21.193L21.435,21.291L21.479,21.389L21.523,21.487L21.567,21.583L21.655,21.774L21.743,21.96L21.831,22.143L21.918,22.322L22.003,22.496L22.088,22.665L22.171,22.829L22.252,22.988L22.331,23.141L22.408,23.288L22.483,23.429L22.5,23.462L22.517,23.429L22.592,23.288L22.669,23.141L22.748,22.988L22.829,22.829L22.912,22.665L22.997,22.496L23.082,22.322L23.169,22.143L23.257,21.96L23.345,21.774L23.433,21.583L23.477,21.487L23.521,21.389L23.565,21.291L23.609,21.193L23.653,21.093L23.697,20.993L23.741,20.892L23.784,20.791L23.827,20.689L23.87,20.587L23.913,20.484L23.955,20.38L23.997,20.277L24.039,20.173L24.08,20.068L24.121,19.963L24.161,19.859L24.2,19.753L24.24,19.648L24.278,19.542L24.316,19.437L24.354,19.331L24.391,19.226L24.427,19.12L24.462,19.014L24.497,18.909L24.531,18.803L24.564,18.698L24.596,18.593L24.627,18.489L24.658,18.384L24.687,18.28L24.716,18.177L24.744,18.073L24.77,17.971L24.796,17.868L24.821,17.767L24.844,17.666L24.867,17.565L24.888,17.465L24.908,17.366L24.927,17.268L24.945,17.171L24.961,17.074L24.976,16.979L24.99,16.884L25.003,16.79L25.014,16.698L25.024,16.607L25.033,16.516L25.041,16.426L25.044,16.383L25.046,16.34L25.049,16.296L25.051,16.253L25.053,16.211L25.054,16.168L25.055,16.127L25.056,16.085L25.056,16.044L25.056,16.003L25.056,15.963L25.055,15.923L25.054,15.883L25.052,15.844L25.051,15.805L25.048,15.767L25.046,15.729L25.043,15.691L25.04,15.654L25.036,15.618L25.032,15.581L25.028,15.546L25.024,15.51L25.019,15.475L25.013,15.441L25.008,15.407L25.002,15.374L24.995,15.341L24.989,15.309L24.982,15.277L24.974,15.246L24.967,15.215L24.959,15.184L24.951,15.155L24.942,15.125L24.933,15.096L24.924,15.068L24.915,15.04L24.905,15.013L24.895,14.986L24.885,14.96L24.874,14.934L24.863,14.908L24.852,14.884L24.841,14.859L24.816,14.81L24.798,14.766L24.788,14.741L24.771,14.705L24.749,14.658L24.722,14.601L24.688,14.534L24.67,14.5L24.651,14.462L24.63,14.423L24.607,14.383L24.584,14.341L24.559,14.297L24.533,14.253L24.505,14.207L24.476,14.161L24.446,14.113L24.415,14.065L24.383,14.017L24.349,13.967L24.315,13.918L24.279,13.868L24.242,13.818L24.204,13.768L24.164,13.719L24.124,13.669L24.083,13.62L24.041,13.571L23.997,13.523L23.952,13.474L23.931,13.452L23.908,13.429L23.885,13.406L23.862,13.383L23.839,13.36L23.815,13.338L23.792,13.316L23.768,13.295L23.743,13.273L23.719,13.252L23.695,13.231L23.67,13.211L23.645,13.191L23.62,13.171L23.595,13.152L23.57,13.132L23.544,13.114L23.519,13.096L23.493,13.078L23.467,13.06L23.441,13.043L23.415,13.027L23.389,13.011L23.362,12.995L23.336,12.979L23.309,12.965L23.282,12.95L23.256,12.936L23.228,12.923L23.201,12.91L23.174,12.897L23.147,12.885L23.119,12.874L23.091,12.863L23.064,12.852L23.036,12.842L23.007,12.832L22.979,12.823L22.951,12.815L22.923,12.807L22.894,12.799L22.865,12.792L22.836,12.786L22.807,12.78L22.777,12.774L22.747,12.769L22.718,12.765L22.687,12.761L22.657,12.758L22.626,12.755L22.595,12.753L22.564,12.751L22.532,12.75L22.5,12.75L22.468,12.75Z" style="fill:rgb(253,115,55);"/>
                        </g>
                        <path d="M11.5,37C17,40.5 27,40.5 32.5,37L32.5,30C32.5,30 41.5,25.5 38.5,19.5C34.5,13 25,16 22.5,23.5L22.5,27L22.5,23.5C19,16 9.5,13 6.5,19.5C3.5,25.5 11.5,29.5 11.5,29.5L11.5,37Z" style="fill:rgb(253,115,55);stroke:rgb(253,115,55);stroke-width:1.5px;stroke-linecap:round;"/>
                        <g>
                            <path d="M20,8L25,8" style="fill:rgb(253,115,55);"/>
                            <path d="M25.039,7.251L25.077,7.254L25.115,7.259L25.153,7.266L25.191,7.275L25.228,7.286L25.265,7.298L25.3,7.313L25.335,7.329L25.369,7.347L25.403,7.367L25.435,7.389L25.465,7.412L25.495,7.437L25.523,7.463L25.55,7.491L25.576,7.52L25.6,7.55L25.622,7.581L25.643,7.614L25.662,7.648L25.679,7.682L25.695,7.717L25.708,7.754L25.72,7.79L25.73,7.828L25.738,7.866L25.744,7.904L25.748,7.942L25.75,7.981L25.75,8.019L25.748,8.058L25.744,8.096L25.738,8.134L25.73,8.172L25.72,8.21L25.708,8.246L25.695,8.283L25.679,8.318L25.662,8.352L25.643,8.386L25.622,8.419L25.6,8.45L25.576,8.48L25.55,8.509L25.523,8.537L25.495,8.563L25.465,8.588L25.435,8.611L25.403,8.633L25.369,8.653L25.335,8.671L25.3,8.687L25.265,8.702L25.228,8.714L25.191,8.725L25.153,8.734L25.115,8.741L25.077,8.746L25.039,8.749L25,8.75L20,8.75L19.961,8.749L19.923,8.746L19.885,8.741L19.847,8.734L19.809,8.725L19.772,8.714L19.735,8.702L19.7,8.687L19.665,8.671L19.631,8.653L19.597,8.633L19.565,8.611L19.535,8.588L19.505,8.563L19.477,8.537L19.45,8.509L19.424,8.48L19.4,8.45L19.378,8.419L19.357,8.386L19.338,8.352L19.321,8.318L19.305,8.283L19.292,8.246L19.28,8.21L19.27,8.172L19.262,8.134L19.256,8.096L19.252,8.058L19.25,8.019L19.25,7.981L19.252,7.942L19.256,7.904L19.262,7.866L19.27,7.828L19.28,7.79L19.292,7.754L19.305,7.717L19.321,7.682L19.338,7.648L19.357,7.614L19.378,7.581L19.4,7.55L19.424,7.52L19.45,7.491L19.477,7.463L19.505,7.437L19.535,7.412L19.565,7.389L19.597,7.367L19.631,7.347L19.665,7.329L19.7,7.313L19.735,7.298L19.772,7.286L19.809,7.275L19.847,7.266L19.885,7.259L19.923,7.254L19.961,7.251L20,7.25L25,7.25L25.039,7.251Z" style="fill:rgb(253,115,55);"/>
                        </g>
                    </g>
                    <path d="M32,29.5C32,29.5 40.5,25.5 38.03,19.85C34.15,14 25,18 22.5,24.5L22.51,26.6L22.5,24.5C20,18 9.906,14 6.997,19.85C4.5,25.5 11.85,28.85 11.85,28.85" style="fill:none;stroke:white;stroke-width:1.5px;stroke-linecap:round;"/>
                    <path d="M11.5,30C17,27 27,27 32.5,30M11.5,33.5C17,30.5 27,30.5 32.5,33.5M11.5,37C17,34 27,34 32.5,37" style="fill:none;stroke:white;stroke-width:1.5px;stroke-linecap:round;"/>
                </g>
            </g>
        </g>
        <g transform="matrix(0.75,0,0,0.75,2170,3480)">
            <g transform="matrix(1,0,0,1,-40,-40)">
                <g transform="matrix(2,0,0,2,-5,-6)">
                    <g>
                        <rect x="9" y="36" width="27" height="3" style="fill:rgb(107,203,73);stroke:rgb(107,203,73);stroke-width:1.5px;"/>
                        <path d="M12.5,32L14,29.5L31,29.5L32.5,32L12.5,32Z" style="fill:rgb(107,203,73);stroke:rgb(107,203,73);stroke-width:1.5px;"/>
                        <rect x="12" y="32" width="21" height="4" style="fill:rgb(107,203,73);stroke:rgb(107,203,73);stroke-width:1.5px;"/>
                        <g>
                            <rect x="14" y="16.5" width="17" height="13" style="fill:rgb(107,203,73);"/>
                            <path d="M31.75,30.25L13.25,30.25L13.25,15.75L31.75,15.75L31.75,30.25ZM14.75,17.25L14.75,28.75L30.25,28.75L30.25,17.25L14.75,17.25Z" style="fill:rgb(107,203,73);"/>
                        </g>
                        <path d="M14,16.5L11,14L34,14L31,16.5L14,16.5Z" style="fill:rgb(107,203,73);stroke:rgb(107,203,73);stroke-width:1.5px;"/>
                        <path d="M11,14L11,9L15,9L15,11L20,11L20,9L25,9L25,11L30,11L30,9L34,9L34,14L11,14Z" style="fill:rgb(107,203,73);stroke:rgb(107,203,73);stroke-width:1.5px;"/>
                    </g>
                    <g>
                        <path d="M12,35.5L33,35.5" style="stroke:black;stroke-width:1px;stroke-linecap:round;stroke-linejoin:miter;"/>
                        <path d="M13,31.5L32,31.5" style="stroke:black;stroke-width:1px;stroke-linecap:round;stroke-linejoin:miter;"/>
                        <path d="M14,29.5L31,29.5" style="stroke:black;stroke-width:1px;stroke-linecap:round;stroke-linejoin:miter;"/>
                        <path d="M14,16.5L31,16.5" style="stroke:black;stroke-width:1px;stroke-linecap:round;stroke-linejoin:miter;"/>
                        <path d="M11,14L34,14" style="stroke:black;stroke-width:1px;stroke-linecap:round;stroke-linejoin:miter;"/>
                    </g>
                </g>
            </g>
        </g>
        <g transform="matrix(0.75,0,0,0.75,1990,3660)">
            <g transform="matrix(1,0,0,1,-40,-40)">
                <g transform="matrix(2,0,0,2,-5,-6)">
                    <g>
                        <g>
                            <path d="M22.5,11.63L22.5,6" style="fill:rgb(107,203,73);"/>
                            <path d="M22.541,5.251L22.581,5.254L22.621,5.26L22.661,5.268L22.701,5.277L22.739,5.289L22.778,5.303L22.815,5.319L22.851,5.337L22.887,5.357L22.921,5.379L22.954,5.403L22.986,5.428L23.016,5.455L23.044,5.484L23.072,5.514L23.097,5.546L23.121,5.579L23.143,5.613L23.163,5.649L23.181,5.685L23.197,5.722L23.211,5.761L23.223,5.799L23.232,5.839L23.24,5.879L23.246,5.919L23.249,5.959L23.25,6L23.25,11.63L23.249,11.671L23.246,11.711L23.24,11.751L23.232,11.791L23.223,11.831L23.211,11.869L23.197,11.908L23.181,11.945L23.163,11.981L23.143,12.017L23.121,12.051L23.097,12.084L23.072,12.116L23.044,12.146L23.016,12.174L22.986,12.202L22.954,12.227L22.921,12.251L22.887,12.273L22.851,12.293L22.815,12.311L22.778,12.327L22.739,12.341L22.701,12.353L22.661,12.362L22.621,12.37L22.581,12.376L22.541,12.379L22.5,12.38L22.459,12.379L22.419,12.376L22.379,12.37L22.339,12.362L22.299,12.353L22.261,12.341L22.222,12.327L22.185,12.311L22.149,12.293L22.113,12.273L22.079,12.251L22.046,12.227L22.014,12.202L21.984,12.174L21.956,12.146L21.928,12.116L21.903,12.084L21.879,12.051L21.857,12.017L21.837,11.981L21.819,11.945L21.803,11.908L21.789,11.869L21.777,11.831L21.768,11.791L21.76,11.751L21.754,11.711L21.751,11.671L21.75,11.63L21.75,6L21.751,5.959L21.754,5.919L21.76,5.879L21.768,5.839L21.777,5.799L21.789,5.761L21.803,5.722L21.819,5.685L21.837,5.649L21.857,5.613L21.879,5.579L21.903,5.546L21.928,5.514L21.956,5.484L21.984,5.455L22.014,5.428L22.046,5.403L22.079,5.379L22.113,5.357L22.149,5.337L22.185,5.319L22.222,5.303L22.261,5.289L22.299,5.277L22.339,5.268L22.379,5.26L22.419,5.254L22.459,5.251L22.5,5.25L22.541,5.251Z" style="fill:rgb(107,203,73);"/>
                        </g>
                        <g>
                            <path d="M22.5,25C22.5,25 27,17.5 25.5,14.5C25.5,14.5 24.5,12 22.5,12C20.5,12 19.5,14.5 19.5,14.5C18,17.5 22.5,25 22.5,25" style="fill:rgb(107,203,73);"/>
                            <path d="M22.561,11.251L22.622,11.252L22.683,11.255L22.743,11.259L22.803,11.265L22.862,11.271L22.921,11.279L22.979,11.287L23.037,11.297L23.094,11.307L23.151,11.319L23.207,11.332L23.263,11.345L23.318,11.36L23.373,11.375L23.427,11.392L23.48,11.409L23.533,11.427L23.585,11.446L23.637,11.465L23.688,11.486L23.739,11.507L23.789,11.529L23.838,11.552L23.886,11.575L23.935,11.599L23.982,11.623L24.029,11.648L24.075,11.674L24.121,11.7L24.166,11.727L24.21,11.755L24.254,11.782L24.297,11.811L24.34,11.839L24.382,11.868L24.423,11.898L24.464,11.928L24.504,11.958L24.544,11.989L24.583,12.02L24.621,12.051L24.659,12.083L24.697,12.114L24.734,12.146L24.77,12.179L24.806,12.211L24.841,12.244L24.876,12.277L24.91,12.31L24.944,12.343L24.977,12.376L25.009,12.41L25.043,12.445L25.104,12.511L25.165,12.578L25.224,12.646L25.281,12.714L25.336,12.781L25.389,12.849L25.44,12.916L25.489,12.982L25.537,13.048L25.583,13.114L25.627,13.178L25.669,13.242L25.71,13.305L25.749,13.366L25.786,13.426L25.821,13.485L25.855,13.543L25.887,13.599L25.918,13.653L25.947,13.706L25.974,13.756L26,13.805L26.025,13.853L26.067,13.938L26.104,14.014L26.135,14.081L26.16,14.135L26.178,14.178L26.183,14.19L26.194,14.211L26.216,14.259L26.237,14.306L26.258,14.354L26.277,14.402L26.296,14.45L26.315,14.499L26.332,14.548L26.348,14.597L26.364,14.647L26.38,14.696L26.394,14.746L26.408,14.796L26.421,14.847L26.433,14.897L26.445,14.948L26.456,14.998L26.467,15.05L26.477,15.101L26.486,15.152L26.494,15.204L26.502,15.255L26.51,15.307L26.517,15.359L26.523,15.412L26.528,15.464L26.534,15.517L26.538,15.569L26.542,15.622L26.546,15.675L26.549,15.728L26.551,15.781L26.553,15.835L26.555,15.888L26.556,15.942L26.556,15.995L26.556,16.049L26.556,16.103L26.555,16.157L26.553,16.212L26.552,16.266L26.549,16.32L26.547,16.375L26.544,16.43L26.54,16.485L26.536,16.541L26.527,16.65L26.517,16.76L26.504,16.871L26.491,16.983L26.476,17.094L26.459,17.206L26.441,17.319L26.422,17.431L26.401,17.544L26.379,17.658L26.356,17.771L26.332,17.885L26.307,17.999L26.28,18.113L26.252,18.227L26.224,18.341L26.194,18.456L26.163,18.571L26.132,18.685L26.099,18.8L26.066,18.914L26.031,19.029L25.996,19.144L25.96,19.258L25.923,19.372L25.886,19.487L25.848,19.601L25.809,19.715L25.769,19.828L25.729,19.942L25.688,20.055L25.647,20.168L25.605,20.28L25.563,20.392L25.52,20.504L25.477,20.615L25.433,20.726L25.389,20.836L25.344,20.946L25.3,21.055L25.255,21.163L25.21,21.271L25.164,21.379L25.118,21.485L25.073,21.591L25.027,21.696L24.981,21.801L24.934,21.904L24.888,22.007L24.842,22.109L24.795,22.21L24.703,22.409L24.612,22.604L24.52,22.794L24.43,22.981L24.341,23.162L24.253,23.338L24.167,23.509L24.082,23.674L24,23.833L23.92,23.986L23.842,24.133L23.767,24.273L23.696,24.406L23.627,24.532L23.562,24.65L23.501,24.761L23.443,24.864L23.342,25.043L23.259,25.187L23.197,25.294L23.146,25.381L22.5,25L21.854,25.381L21.803,25.294L21.741,25.187L21.658,25.043L21.557,24.864L21.499,24.761L21.438,24.65L21.373,24.532L21.304,24.406L21.233,24.273L21.158,24.133L21.08,23.986L21,23.833L20.918,23.674L20.833,23.509L20.747,23.338L20.659,23.162L20.57,22.981L20.48,22.794L20.388,22.604L20.297,22.409L20.205,22.21L20.158,22.109L20.112,22.007L20.066,21.904L20.019,21.801L19.973,21.696L19.927,21.591L19.882,21.485L19.836,21.379L19.79,21.271L19.745,21.163L19.7,21.055L19.656,20.946L19.611,20.836L19.567,20.726L19.523,20.615L19.48,20.504L19.437,20.392L19.395,20.28L19.353,20.167L19.312,20.055L19.271,19.942L19.231,19.828L19.191,19.715L19.152,19.601L19.114,19.487L19.077,19.372L19.04,19.258L19.004,19.144L18.969,19.029L18.934,18.914L18.901,18.8L18.868,18.685L18.837,18.571L18.806,18.456L18.776,18.341L18.748,18.227L18.72,18.113L18.693,17.999L18.668,17.885L18.644,17.771L18.621,17.658L18.599,17.544L18.578,17.431L18.559,17.319L18.541,17.206L18.524,17.094L18.509,16.983L18.496,16.871L18.483,16.76L18.473,16.65L18.464,16.541L18.46,16.485L18.456,16.43L18.453,16.375L18.451,16.321L18.448,16.266L18.447,16.212L18.445,16.157L18.444,16.103L18.444,16.049L18.444,15.996L18.444,15.942L18.445,15.888L18.447,15.835L18.449,15.781L18.451,15.728L18.454,15.675L18.458,15.622L18.462,15.569L18.466,15.517L18.472,15.464L18.477,15.412L18.483,15.359L18.49,15.307L18.498,15.255L18.506,15.204L18.514,15.152L18.523,15.101L18.533,15.05L18.544,14.998L18.555,14.948L18.567,14.897L18.579,14.847L18.592,14.796L18.606,14.746L18.62,14.696L18.636,14.647L18.651,14.597L18.668,14.548L18.686,14.499L18.704,14.45L18.723,14.402L18.742,14.354L18.763,14.306L18.784,14.259L18.806,14.211L18.817,14.19L18.822,14.178L18.84,14.135L18.865,14.081L18.896,14.014L18.933,13.938L18.975,13.853L19,13.805L19.026,13.756L19.053,13.706L19.082,13.653L19.112,13.599L19.145,13.543L19.179,13.485L19.214,13.426L19.251,13.366L19.29,13.305L19.331,13.242L19.373,13.178L19.417,13.114L19.463,13.048L19.511,12.982L19.56,12.916L19.611,12.849L19.664,12.781L19.719,12.714L19.776,12.646L19.835,12.578L19.896,12.511L19.957,12.445L19.991,12.41L20.023,12.376L20.056,12.343L20.09,12.31L20.124,12.277L20.159,12.244L20.194,12.211L20.23,12.179L20.266,12.146L20.303,12.114L20.341,12.083L20.379,12.051L20.417,12.02L20.456,11.989L20.496,11.958L20.536,11.928L20.577,11.898L20.618,11.868L20.66,11.839L20.703,11.811L20.746,11.782L20.79,11.755L20.834,11.727L20.879,11.7L20.925,11.674L20.971,11.648L21.018,11.623L21.065,11.599L21.114,11.575L21.162,11.552L21.211,11.529L21.261,11.507L21.312,11.486L21.363,11.465L21.415,11.446L21.467,11.427L21.52,11.409L21.573,11.392L21.627,11.375L21.682,11.36L21.737,11.345L21.793,11.332L21.849,11.319L21.906,11.307L21.963,11.297L22.021,11.287L22.079,11.279L22.138,11.271L22.197,11.265L22.257,11.259L22.317,11.255L22.378,11.252L22.439,11.251L22.5,11.25L22.561,11.251ZM22.468,12.75L22.436,12.751L22.405,12.753L22.374,12.755L22.343,12.758L22.312,12.761L22.283,12.765L22.253,12.769L22.223,12.774L22.194,12.779L22.164,12.786L22.135,12.792L22.106,12.799L22.077,12.807L22.049,12.815L22.021,12.823L21.992,12.832L21.964,12.842L21.936,12.852L21.908,12.863L21.881,12.874L21.853,12.885L21.826,12.897L21.799,12.91L21.771,12.923L21.745,12.936L21.718,12.95L21.691,12.965L21.664,12.979L21.638,12.995L21.611,13.01L21.585,13.027L21.559,13.043L21.533,13.06L21.507,13.078L21.481,13.096L21.455,13.114L21.43,13.132L21.405,13.152L21.38,13.171L21.355,13.191L21.33,13.211L21.305,13.231L21.281,13.252L21.256,13.273L21.232,13.294L21.209,13.316L21.185,13.338L21.161,13.36L21.138,13.383L21.115,13.406L21.092,13.429L21.069,13.452L21.048,13.474L21.003,13.523L20.959,13.571L20.917,13.62L20.876,13.669L20.836,13.719L20.796,13.768L20.758,13.818L20.721,13.868L20.685,13.918L20.651,13.967L20.617,14.017L20.585,14.065L20.554,14.113L20.524,14.161L20.495,14.207L20.467,14.253L20.441,14.297L20.416,14.341L20.393,14.383L20.37,14.423L20.349,14.462L20.329,14.5L20.312,14.534L20.278,14.601L20.251,14.657L20.229,14.705L20.212,14.741L20.202,14.766L20.183,14.81L20.159,14.859L20.148,14.884L20.137,14.909L20.126,14.934L20.115,14.96L20.105,14.986L20.095,15.013L20.085,15.04L20.076,15.068L20.067,15.096L20.058,15.125L20.049,15.154L20.041,15.184L20.033,15.215L20.025,15.246L20.018,15.277L20.011,15.309L20.005,15.341L19.998,15.374L19.992,15.407L19.987,15.441L19.981,15.476L19.977,15.51L19.972,15.546L19.968,15.581L19.964,15.617L19.96,15.654L19.957,15.691L19.954,15.729L19.952,15.767L19.949,15.805L19.948,15.844L19.946,15.883L19.945,15.923L19.944,15.963L19.944,16.003L19.944,16.044L19.944,16.085L19.945,16.127L19.946,16.169L19.947,16.211L19.949,16.253L19.951,16.296L19.954,16.34L19.956,16.383L19.959,16.426L19.967,16.516L19.976,16.607L19.986,16.698L19.997,16.79L20.01,16.884L20.024,16.979L20.039,17.074L20.055,17.171L20.073,17.268L20.092,17.366L20.112,17.465L20.133,17.565L20.156,17.665L20.179,17.767L20.204,17.868L20.23,17.971L20.256,18.073L20.284,18.177L20.313,18.28L20.342,18.384L20.373,18.489L20.404,18.593L20.436,18.698L20.469,18.804L20.503,18.909L20.538,19.014L20.573,19.12L20.609,19.226L20.646,19.331L20.684,19.437L20.722,19.542L20.76,19.648L20.8,19.753L20.839,19.858L20.88,19.963L20.92,20.068L20.961,20.173L21.003,20.277L21.045,20.38L21.087,20.484L21.13,20.587L21.173,20.689L21.216,20.791L21.259,20.892L21.303,20.993L21.347,21.093L21.391,21.193L21.435,21.291L21.479,21.389L21.523,21.487L21.567,21.583L21.655,21.774L21.743,21.96L21.831,22.143L21.918,22.322L22.003,22.496L22.088,22.665L22.171,22.829L22.252,22.988L22.331,23.141L22.408,23.288L22.483,23.429L22.5,23.462L22.517,23.429L22.592,23.288L22.669,23.141L22.748,22.988L22.829,22.829L22.912,22.665L22.997,22.496L23.082,22.322L23.169,22.143L23.257,21.96L23.345,21.774L23.433,21.583L23.477,21.487L23.521,21.389L23.565,21.291L23.609,21.193L23.653,21.093L23.697,20.993L23.741,20.892L23.784,20.791L23.827,20.689L23.87,20.587L23.913,20.484L23.955,20.38L23.997,20.277L24.039,20.173L24.08,20.068L24.12,19.963L24.161,19.858L24.2,19.753L24.24,19.648L24.278,19.542L24.316,19.437L24.354,19.331L24.391,19.226L24.427,19.12L24.462,19.014L24.497,18.909L24.531,18.804L24.564,18.698L24.596,18.593L24.627,18.489L24.658,18.384L24.687,18.28L24.716,18.177L24.744,18.073L24.77,17.971L24.796,17.868L24.821,17.767L24.844,17.665L24.867,17.565L24.888,17.465L24.908,17.366L24.927,17.268L24.945,17.171L24.961,17.074L24.976,16.979L24.99,16.884L25.003,16.79L25.014,16.698L25.024,16.607L25.033,16.516L25.041,16.426L25.044,16.383L25.046,16.34L25.049,16.296L25.051,16.253L25.053,16.211L25.054,16.168L25.055,16.127L25.056,16.085L25.056,16.044L25.056,16.003L25.056,15.963L25.055,15.923L25.054,15.883L25.052,15.844L25.051,15.805L25.048,15.767L25.046,15.729L25.043,15.691L25.04,15.654L25.036,15.617L25.032,15.581L25.028,15.546L25.023,15.51L25.019,15.476L25.013,15.441L25.008,15.407L25.002,15.374L24.995,15.341L24.989,15.309L24.982,15.277L24.975,15.246L24.967,15.215L24.959,15.184L24.951,15.154L24.942,15.125L24.933,15.096L24.924,15.068L24.915,15.04L24.905,15.013L24.895,14.986L24.885,14.96L24.874,14.934L24.863,14.909L24.852,14.884L24.841,14.859L24.817,14.81L24.798,14.766L24.788,14.741L24.771,14.705L24.749,14.657L24.722,14.601L24.688,14.534L24.671,14.5L24.651,14.462L24.63,14.423L24.607,14.383L24.584,14.341L24.559,14.297L24.533,14.253L24.505,14.207L24.476,14.161L24.446,14.113L24.415,14.065L24.383,14.017L24.349,13.967L24.315,13.918L24.279,13.868L24.242,13.818L24.204,13.768L24.164,13.719L24.124,13.669L24.083,13.62L24.041,13.571L23.997,13.523L23.952,13.474L23.931,13.452L23.908,13.429L23.885,13.406L23.862,13.383L23.839,13.36L23.815,13.338L23.791,13.316L23.768,13.294L23.744,13.273L23.719,13.252L23.695,13.231L23.67,13.211L23.645,13.191L23.62,13.171L23.595,13.152L23.57,13.132L23.545,13.114L23.519,13.096L23.493,13.078L23.467,13.06L23.441,13.043L23.415,13.027L23.389,13.01L23.362,12.995L23.336,12.979L23.309,12.965L23.282,12.95L23.255,12.936L23.229,12.923L23.201,12.91L23.174,12.897L23.147,12.885L23.119,12.874L23.092,12.863L23.064,12.852L23.036,12.842L23.008,12.832L22.979,12.823L22.951,12.815L22.923,12.807L22.894,12.799L22.865,12.792L22.836,12.786L22.806,12.779L22.777,12.774L22.747,12.769L22.717,12.765L22.688,12.761L22.657,12.758L22.626,12.755L22.595,12.753L22.564,12.751L22.532,12.75L22.5,12.75L22.468,12.75Z" style="fill:rgb(107,203,73);"/>
                        </g>
                        <path d="M11.5,37C17,40.5 27,40.5 32.5,37L32.5,30C32.5,30 41.5,25.5 38.5,19.5C34.5,13 25,16 22.5,23.5L22.5,27L22.5,23.5C19,16 9.5,13 6.5,19.5C3.5,25.5 11.5,29.5 11.5,29.5L11.5,37Z" style="fill:rgb(107,203,73);stroke:rgb(107,203,73);stroke-width:1.5px;stroke-linecap:round;"/>
                        <g>
                            <path d="M20,8L25,8" style="fill:rgb(107,203,73);"/>
                            <path d="M25.039,7.251L25.077,7.254L25.115,7.259L25.153,7.266L25.191,7.275L25.228,7.286L25.265,7.298L25.3,7.313L25.335,7.329L25.369,7.347L25.403,7.367L25.435,7.389L25.465,7.412L25.495,7.437L25.523,7.463L25.55,7.491L25.576,7.52L25.6,7.55L25.622,7.581L25.643,7.614L25.662,7.648L25.679,7.682L25.695,7.717L25.708,7.754L25.72,7.79L25.73,7.828L25.738,7.866L25.744,7.904L25.748,7.942L25.75,7.981L25.75,8.019L25.748,8.058L25.744,8.096L25.738,8.134L25.73,8.172L25.72,8.21L25.708,8.246L25.695,8.283L25.679,8.318L25.662,8.352L25.643,8.386L25.622,8.419L25.6,8.45L25.576,8.48L25.55,8.509L25.523,8.537L25.495,8.563L25.465,8.588L25.435,8.611L25.403,8.633L25.369,8.653L25.335,8.671L25.3,8.687L25.265,8.702L25.228,8.714L25.191,8.725L25.153,8.734L25.115,8.741L25.077,8.746L25.039,8.749L25,8.75L20,8.75L19.961,8.749L19.923,8.746L19.885,8.741L19.847,8.734L19.809,8.725L19.772,8.714L19.735,8.702L19.7,8.687L19.665,8.671L19.631,8.653L19.597,8.633L19.565,8.611L19.535,8.588L19.505,8.563L19.477,8.537L19.45,8.509L19.424,8.48L19.4,8.45L19.378,8.419L19.357,8.386L19.338,8.352L19.321,8.318L19.305,8.283L19.292,8.246L19.28,8.21L19.27,8.172L19.262,8.134L19.256,8.096L19.252,8.058L19.25,8.019L19.25,7.981L19.252,7.942L19.256,7.904L19.262,7.866L19.27,7.828L19.28,7.79L19.292,7.754L19.305,7.717L19.321,7.682L19.338,7.648L19.357,7.614L19.378,7.581L19.4,7.55L19.424,7.52L19.45,7.491L19.477,7.463L19.505,7.437L19.535,7.412L19.565,7.389L19.597,7.367L19.631,7.347L19.665,7.329L19.7,7.313L19.735,7.298L19.772,7.286L19.809,7.275L19.847,7.266L19.885,7.259L19.923,7.254L19.961,7.251L20,7.25L25,7.25L25.039,7.251Z" style="fill:rgb(107,203,73);"/>
                        </g>
                    </g>
                    <path d="M32,29.5C32,29.5 40.5,25.5 38.03,19.85C34.15,14 25,18 22.5,24.5L22.51,26.6L22.5,24.5C20,18 9.906,14 6.997,19.85C4.5,25.5 11.85,28.85 11.85,28.85" style="fill:none;stroke:black;stroke-width:1.5px;stroke-linecap:round;"/>
                    <path d="M11.5,30C17,27 27,27 32.5,30M11.5,33.5C17,30.5 27,30.5 32.5,33.5M11.5,37C17,34 27,34 32.5,37" style="fill:none;stroke:black;stroke-width:1.5px;stroke-linecap:round;"/>
                </g>
            </g>
        </g>
    </g>
    <defs>
        <linearGradient id="_Linear1" x1="0" y1="0" x2="1" y2="0" gradientUnits="userSpaceOnUse" gradientTransform="matrix(133.642,0,0,133.642,2899.3,1655.6)"><stop offset="0%" style="stop-color:white;stop-opacity:1"/><stop offset="100%" style="stop-color:white;stop-opacity:1"/></linearGradient>
        <linearGradient id="_Linear2" x1="0" y1="0" x2="1" y2="0" gradientUnits="userSpaceOnUse" gradientTransform="matrix(133.642,0,0,133.642,2899.3,1655.6)"><stop offset="0%" style="stop-color:white;stop-opacity:1"/><stop offset="100%" style="stop-color:white;stop-opacity:1"/></linearGradient>
    </defs>
</svg>
